{"glyphs":{"0":{"ha":1096,"x_min":0,"x_max":1096,"o":"m 981 456 q 956 517 981 468 q 908 571 928 571 q 785 549 900 571 l 785 576 q 794 612 785 585 q 803 650 803 639 q 809 725 803 671 q 815 785 815 779 q 699 864 815 810 q 560 933 568 926 l 189 651 l 179 343 q 190 307 178 317 q 310 225 236 278 q 365 181 357 189 q 407 139 393 157 l 432 139 q 606 301 490 197 q 775 454 722 404 q 783 479 779 460 q 792 503 786 499 q 835 528 821 525 q 868 526 831 526 q 950 440 950 526 q 916 345 950 406 q 858 279 882 285 q 842 321 850 301 q 797 340 835 340 q 717 308 761 340 q 632 243 674 276 q 581 200 599 243 q 592 192 592 199 q 579 172 592 186 q 563 156 563 156 q 586 163 575 151 q 603 174 597 174 q 617 164 601 168 q 601 139 604 150 q 607 138 604 138 q 633 159 611 138 q 682 188 656 181 q 688 196 688 188 q 669 246 688 204 q 786 318 744 318 q 821 301 811 318 q 847 258 843 263 q 938 338 890 260 q 981 456 981 410 m 667 747 q 451 543 596 675 q 525 632 465 567 q 574 708 571 682 q 657 772 622 761 q 667 747 657 756 m 599 821 q 340 624 436 703 q 347 650 340 646 q 582 847 422 714 q 599 821 582 839 m 771 778 q 603 603 718 710 q 415 429 510 517 l 217 646 q 353 751 232 667 q 472 833 468 833 q 479 829 479 833 q 478 825 479 828 q 476 821 476 822 q 483 818 476 818 q 521 849 492 818 q 576 901 561 890 l 607 881 q 271 635 418 756 q 326 594 294 594 q 335 589 336 594 q 333 579 331 582 q 669 840 499 746 q 689 821 678 838 q 711 790 708 793 q 694 797 708 790 q 669 803 679 803 q 551 708 658 803 q 375 551 382 558 q 407 516 386 532 q 444 504 428 500 q 585 650 514 576 q 751 788 685 754 q 771 778 764 778 m 711 586 q 696 525 711 578 q 675 447 679 465 q 629 385 671 424 q 571 326 576 336 q 535 261 561 301 q 422 161 508 232 q 417 260 422 192 q 413 332 413 328 q 414 410 413 386 q 694 615 614 607 q 703 605 694 613 q 711 586 711 597 m 674 203 l 654 183 q 636 188 649 189 q 617 175 622 186 q 622 188 617 178 q 626 204 626 197 q 625 213 626 208 q 599 217 614 203 q 674 203 621 231 m 404 176 q 204 338 203 319 l 204 631 q 313 524 258 578 q 404 382 404 425 l 404 176 m 331 378 q 310 392 324 386 q 297 401 297 399 q 301 439 297 411 q 304 478 304 467 q 292 485 303 476 q 288 408 292 453 q 226 397 246 407 q 233 340 238 353 q 289 319 253 346 q 329 342 307 331 l 331 378 m 299 386 q 288 379 299 388 q 272 383 285 379 q 256 388 260 388 q 274 396 274 389 q 286 391 274 394 q 299 386 299 388 m 318 371 q 290 361 308 369 l 290 333 l 286 333 l 285 358 q 240 376 272 365 l 243 382 q 286 365 268 376 q 317 375 303 374 l 318 371 m 549 -19 q 160 142 321 -19 q 0 533 0 304 q 160 925 0 763 q 549 1088 321 1088 q 935 925 775 1088 q 1096 533 1096 763 q 935 142 1096 304 q 549 -19 775 -19 m 549 22 q 906 172 757 22 q 1054 533 1054 321 q 906 896 1054 746 q 549 1046 757 1046 q 190 896 339 1046 q 42 533 42 746 q 190 172 42 321 q 549 22 339 22 z "},"1":{"ha":1096,"x_min":21,"x_max":1075,"o":"m 1075 533 q 921 157 1075 313 q 549 1 767 1 q 176 157 331 1 q 21 533 21 313 q 176 910 21 754 q 549 1067 331 1067 q 921 910 767 1067 q 1075 533 1075 754 m 981 456 q 956 517 981 468 q 908 571 928 571 q 785 549 900 571 l 785 576 q 794 612 785 585 q 803 650 803 639 q 809 725 803 671 q 815 785 815 779 q 699 864 815 810 q 560 933 568 926 l 189 651 l 175 347 q 194 307 175 324 q 310 233 238 282 q 407 139 378 179 l 432 139 q 606 301 490 197 q 775 454 722 404 q 783 479 779 460 q 792 503 786 499 q 835 528 821 525 q 868 526 831 526 q 950 440 950 526 q 916 345 950 406 q 858 279 882 285 q 842 321 850 301 q 797 340 835 340 q 717 308 761 340 q 632 243 674 276 q 581 200 599 243 q 592 192 592 199 q 579 172 592 186 q 563 156 563 156 q 586 163 575 151 q 603 174 597 174 q 617 164 601 168 q 601 139 604 150 q 607 138 604 138 q 633 159 611 138 q 682 188 656 181 q 688 196 688 188 q 669 246 688 204 q 786 318 744 318 q 821 301 811 318 q 847 258 843 263 q 938 338 890 260 q 981 456 981 410 m 667 747 q 451 543 596 675 q 525 632 465 567 q 574 708 571 682 q 657 772 622 761 q 667 747 657 756 m 599 821 q 340 624 436 703 q 347 650 340 646 q 582 847 422 714 q 599 821 582 839 m 771 778 q 603 603 718 710 q 415 429 510 517 l 217 646 q 353 751 232 667 q 472 833 468 833 q 479 829 479 833 q 478 825 479 828 q 476 821 476 822 q 483 818 476 818 q 521 849 492 818 q 576 901 561 890 l 607 881 q 271 635 418 756 q 326 594 294 594 q 335 589 336 594 q 333 579 331 582 q 669 840 499 746 q 689 821 678 838 q 711 790 708 793 q 694 797 708 790 q 669 803 679 803 q 551 708 658 803 q 375 551 382 558 q 407 516 386 532 q 444 504 428 500 q 585 650 514 576 q 751 788 685 754 q 771 778 764 778 m 711 586 q 696 525 711 578 q 675 447 679 465 q 629 385 671 424 q 571 326 576 336 q 535 261 561 301 q 422 161 508 232 q 417 260 422 192 q 413 332 413 328 q 414 410 413 386 q 694 615 614 607 q 703 605 694 613 q 711 586 711 597 m 674 203 l 654 183 q 636 188 649 189 q 617 175 622 186 q 622 188 617 178 q 626 204 626 197 q 625 213 626 208 q 599 217 614 203 q 674 203 621 231 m 404 176 q 204 338 203 319 l 204 631 q 308 525 256 578 q 394 385 396 428 l 404 176 m 331 378 q 310 392 324 386 q 297 401 297 399 q 301 439 297 411 q 304 478 304 467 q 292 485 303 476 q 288 408 292 453 q 226 397 246 407 q 233 340 238 353 q 289 319 253 346 q 329 342 307 331 l 331 378 m 299 386 q 288 379 299 388 q 272 383 285 379 q 256 388 260 388 q 274 396 274 389 q 286 391 274 394 q 299 386 299 388 m 318 371 q 290 361 308 369 l 290 333 l 286 333 l 285 358 q 240 376 272 365 l 243 382 q 286 365 268 376 q 317 375 303 374 l 318 371 z "},"2":{"ha":1096,"x_min":0,"x_max":1096,"o":"m 981 456 q 956 517 981 468 q 908 571 928 571 q 785 549 900 571 l 785 576 q 794 612 785 585 q 803 650 803 639 q 809 725 803 671 q 815 785 815 779 q 699 864 815 810 q 560 933 568 926 l 189 651 l 179 343 q 190 307 178 317 q 310 225 236 278 q 365 181 357 189 q 407 139 393 157 l 432 139 q 606 301 490 197 q 775 454 722 404 q 783 479 779 460 q 792 503 786 499 q 835 528 821 525 q 868 526 831 526 q 950 440 950 526 q 916 345 950 406 q 858 279 882 285 q 842 321 850 301 q 797 340 835 340 q 717 308 761 340 q 632 243 674 276 q 581 200 599 243 q 592 192 592 199 q 579 172 592 186 q 563 156 563 156 q 586 163 575 151 q 603 174 597 174 q 617 164 601 168 q 601 139 604 150 q 607 138 604 138 q 633 159 611 138 q 682 188 656 181 q 688 196 688 188 q 669 246 688 204 q 786 318 744 318 q 821 301 811 318 q 847 258 843 263 q 938 338 890 260 q 981 456 981 410 m 667 747 q 451 543 596 675 q 525 632 465 567 q 574 708 571 682 q 657 772 622 761 q 667 747 657 756 m 599 821 q 340 624 436 703 q 347 650 340 646 q 582 847 422 714 q 599 821 582 839 m 771 778 q 603 603 718 710 q 415 429 510 517 l 217 646 q 353 751 232 667 q 472 833 468 833 q 479 829 479 833 q 478 825 479 828 q 476 821 476 822 q 483 818 476 818 q 521 849 492 818 q 576 901 561 890 l 607 881 q 271 635 418 756 q 326 594 294 594 q 335 589 336 594 q 333 579 331 582 q 669 840 499 746 q 689 821 678 838 q 711 790 708 793 q 694 797 708 790 q 669 803 679 803 q 551 708 658 803 q 375 551 382 558 q 407 516 386 532 q 444 504 428 500 q 585 650 514 576 q 751 788 685 754 q 771 778 764 778 m 711 586 q 696 525 711 578 q 675 447 679 465 q 629 385 671 424 q 571 326 576 336 q 535 261 561 301 q 422 161 508 232 q 417 260 422 192 q 413 332 413 328 q 414 410 413 386 q 694 615 614 607 q 703 605 694 613 q 711 586 711 597 m 674 203 l 654 183 q 636 188 649 189 q 617 175 622 186 q 622 188 617 178 q 626 204 626 197 q 625 213 626 208 q 599 217 614 203 q 674 203 621 231 m 404 176 q 204 338 203 319 l 204 631 q 313 524 258 578 q 404 382 404 425 l 404 176 m 331 378 q 310 392 324 386 q 297 401 297 399 q 301 439 297 411 q 304 478 304 467 q 292 485 303 476 q 288 408 292 453 q 226 397 246 407 q 233 340 238 353 q 289 319 253 346 q 329 342 307 331 l 331 378 m 299 386 q 288 379 299 388 q 272 383 285 379 q 256 388 260 388 q 274 396 274 389 q 286 391 274 394 q 299 386 299 388 m 318 371 q 290 361 308 369 l 290 333 l 286 333 l 285 358 q 240 376 272 365 l 243 382 q 286 365 268 376 q 317 375 303 374 l 318 371 m 549 -19 q 160 142 321 -19 q 0 533 0 304 q 160 925 0 763 q 549 1088 321 1088 q 935 925 775 1088 q 1096 533 1096 763 q 935 142 1096 304 q 549 -19 775 -19 m 549 22 q 906 172 757 22 q 1054 533 1054 321 q 906 896 1054 746 q 549 1046 757 1046 q 190 896 339 1046 q 42 533 42 746 q 190 172 42 321 q 549 22 339 22 z "},"3":{"ha":1096,"x_min":21,"x_max":1075,"o":"m 1075 533 q 921 157 1075 313 q 549 1 767 1 q 176 157 331 1 q 21 533 21 313 q 176 910 21 754 q 549 1067 331 1067 q 921 910 767 1067 q 1075 533 1075 754 m 981 456 q 956 517 981 468 q 908 571 928 571 q 785 549 900 571 l 785 576 q 794 612 785 585 q 803 650 803 639 q 809 725 803 671 q 815 785 815 779 q 699 864 815 810 q 560 933 568 926 l 189 651 l 175 347 q 194 307 175 324 q 310 233 238 282 q 407 139 378 179 l 432 139 q 606 301 490 197 q 775 454 722 404 q 783 479 779 460 q 792 503 786 499 q 835 528 821 525 q 868 526 831 526 q 950 440 950 526 q 916 345 950 406 q 858 279 882 285 q 842 321 850 301 q 797 340 835 340 q 717 308 761 340 q 632 243 674 276 q 581 200 599 243 q 592 192 592 199 q 579 172 592 186 q 563 156 563 156 q 586 163 575 151 q 603 174 597 174 q 617 164 601 168 q 601 139 604 150 q 607 138 604 138 q 633 159 611 138 q 682 188 656 181 q 688 196 688 188 q 669 246 688 204 q 786 318 744 318 q 821 301 811 318 q 847 258 843 263 q 938 338 890 260 q 981 456 981 410 m 667 747 q 451 543 596 675 q 525 632 465 567 q 574 708 571 682 q 657 772 622 761 q 667 747 657 756 m 599 821 q 340 624 436 703 q 347 650 340 646 q 582 847 422 714 q 599 821 582 839 m 771 778 q 603 603 718 710 q 415 429 510 517 l 217 646 q 353 751 232 667 q 472 833 468 833 q 479 829 479 833 q 478 825 479 828 q 476 821 476 822 q 483 818 476 818 q 521 849 492 818 q 576 901 561 890 l 607 881 q 271 635 418 756 q 326 594 294 594 q 335 589 336 594 q 333 579 331 582 q 669 840 499 746 q 689 821 678 838 q 711 790 708 793 q 694 797 708 790 q 669 803 679 803 q 551 708 658 803 q 375 551 382 558 q 407 516 386 532 q 444 504 428 500 q 585 650 514 576 q 751 788 685 754 q 771 778 764 778 m 711 586 q 696 525 711 578 q 675 447 679 465 q 629 385 671 424 q 571 326 576 336 q 535 261 561 301 q 422 161 508 232 q 417 260 422 192 q 413 332 413 328 q 414 410 413 386 q 694 615 614 607 q 703 605 694 613 q 711 586 711 597 m 674 203 l 654 183 q 636 188 649 189 q 617 175 622 186 q 622 188 617 178 q 626 204 626 197 q 625 213 626 208 q 599 217 614 203 q 674 203 621 231 m 404 176 q 204 338 203 319 l 204 631 q 308 525 256 578 q 394 385 396 428 l 404 176 m 331 378 q 310 392 324 386 q 297 401 297 399 q 301 439 297 411 q 304 478 304 467 q 292 485 303 476 q 288 408 292 453 q 226 397 246 407 q 233 340 238 353 q 289 319 253 346 q 329 342 307 331 l 331 378 m 299 386 q 288 379 299 388 q 272 383 285 379 q 256 388 260 388 q 274 396 274 389 q 286 391 274 394 q 299 386 299 388 m 318 371 q 290 361 308 369 l 290 333 l 286 333 l 285 358 q 240 376 272 365 l 243 382 q 286 365 268 376 q 317 375 303 374 l 318 371 z "},"4":{"ha":1096,"x_min":0,"x_max":1096,"o":"m 981 456 q 956 517 981 468 q 908 571 928 571 q 785 549 900 571 l 785 576 q 794 612 785 585 q 803 650 803 639 q 809 725 803 671 q 815 785 815 779 q 699 864 815 810 q 560 933 568 926 l 189 651 l 179 343 q 190 307 178 317 q 310 225 236 278 q 365 181 357 189 q 407 139 393 157 l 432 139 q 606 301 490 197 q 775 454 722 404 q 783 479 779 460 q 792 503 786 499 q 835 528 821 525 q 868 526 831 526 q 950 440 950 526 q 916 345 950 406 q 858 279 882 285 q 842 321 850 301 q 797 340 835 340 q 717 308 761 340 q 632 243 674 276 q 581 200 599 243 q 592 192 592 199 q 579 172 592 186 q 563 156 563 156 q 586 163 575 151 q 603 174 597 174 q 617 164 601 168 q 601 139 604 150 q 607 138 604 138 q 633 159 611 138 q 682 188 656 181 q 688 196 688 188 q 669 246 688 204 q 786 318 744 318 q 821 301 811 318 q 847 258 843 263 q 938 338 890 260 q 981 456 981 410 m 667 747 q 451 543 596 675 q 525 632 465 567 q 574 708 571 682 q 657 772 622 761 q 667 747 657 756 m 599 821 q 340 624 436 703 q 347 650 340 646 q 582 847 422 714 q 599 821 582 839 m 771 778 q 603 603 718 710 q 415 429 510 517 l 217 646 q 353 751 232 667 q 472 833 468 833 q 479 829 479 833 q 478 825 479 828 q 476 821 476 822 q 483 818 476 818 q 521 849 492 818 q 576 901 561 890 l 607 881 q 271 635 418 756 q 326 594 294 594 q 335 589 336 594 q 333 579 331 582 q 669 840 499 746 q 689 821 678 838 q 711 790 708 793 q 694 797 708 790 q 669 803 679 803 q 551 708 658 803 q 375 551 382 558 q 407 516 386 532 q 444 504 428 500 q 585 650 514 576 q 751 788 685 754 q 771 778 764 778 m 711 586 q 696 525 711 578 q 675 447 679 465 q 629 385 671 424 q 571 326 576 336 q 535 261 561 301 q 422 161 508 232 q 417 260 422 192 q 413 332 413 328 q 414 410 413 386 q 694 615 614 607 q 703 605 694 613 q 711 586 711 597 m 674 203 l 654 183 q 636 188 649 189 q 617 175 622 186 q 622 188 617 178 q 626 204 626 197 q 625 213 626 208 q 599 217 614 203 q 674 203 621 231 m 404 176 q 204 338 203 319 l 204 631 q 313 524 258 578 q 404 382 404 425 l 404 176 m 331 378 q 310 392 324 386 q 297 401 297 399 q 301 439 297 411 q 304 478 304 467 q 292 485 303 476 q 288 408 292 453 q 226 397 246 407 q 233 340 238 353 q 289 319 253 346 q 329 342 307 331 l 331 378 m 299 386 q 288 379 299 388 q 272 383 285 379 q 256 388 260 388 q 274 396 274 389 q 286 391 274 394 q 299 386 299 388 m 318 371 q 290 361 308 369 l 290 333 l 286 333 l 285 358 q 240 376 272 365 l 243 382 q 286 365 268 376 q 317 375 303 374 l 318 371 m 549 -19 q 160 142 321 -19 q 0 533 0 304 q 160 925 0 763 q 549 1088 321 1088 q 935 925 775 1088 q 1096 533 1096 763 q 935 142 1096 304 q 549 -19 775 -19 m 549 22 q 906 172 757 22 q 1054 533 1054 321 q 906 896 1054 746 q 549 1046 757 1046 q 190 896 339 1046 q 42 533 42 746 q 190 172 42 321 q 549 22 339 22 z "},"5":{"ha":1096,"x_min":21,"x_max":1075,"o":"m 1075 533 q 921 157 1075 313 q 549 1 767 1 q 176 157 331 1 q 21 533 21 313 q 176 910 21 754 q 549 1067 331 1067 q 921 910 767 1067 q 1075 533 1075 754 m 981 456 q 956 517 981 468 q 908 571 928 571 q 785 549 900 571 l 785 576 q 794 612 785 585 q 803 650 803 639 q 809 725 803 671 q 815 785 815 779 q 699 864 815 810 q 560 933 568 926 l 189 651 l 175 347 q 194 307 175 324 q 310 233 238 282 q 407 139 378 179 l 432 139 q 606 301 490 197 q 775 454 722 404 q 783 479 779 460 q 792 503 786 499 q 835 528 821 525 q 868 526 831 526 q 950 440 950 526 q 916 345 950 406 q 858 279 882 285 q 842 321 850 301 q 797 340 835 340 q 717 308 761 340 q 632 243 674 276 q 581 200 599 243 q 592 192 592 199 q 579 172 592 186 q 563 156 563 156 q 586 163 575 151 q 603 174 597 174 q 617 164 601 168 q 601 139 604 150 q 607 138 604 138 q 633 159 611 138 q 682 188 656 181 q 688 196 688 188 q 669 246 688 204 q 786 318 744 318 q 821 301 811 318 q 847 258 843 263 q 938 338 890 260 q 981 456 981 410 m 667 747 q 451 543 596 675 q 525 632 465 567 q 574 708 571 682 q 657 772 622 761 q 667 747 657 756 m 599 821 q 340 624 436 703 q 347 650 340 646 q 582 847 422 714 q 599 821 582 839 m 771 778 q 603 603 718 710 q 415 429 510 517 l 217 646 q 353 751 232 667 q 472 833 468 833 q 479 829 479 833 q 478 825 479 828 q 476 821 476 822 q 483 818 476 818 q 521 849 492 818 q 576 901 561 890 l 607 881 q 271 635 418 756 q 326 594 294 594 q 335 589 336 594 q 333 579 331 582 q 669 840 499 746 q 689 821 678 838 q 711 790 708 793 q 694 797 708 790 q 669 803 679 803 q 551 708 658 803 q 375 551 382 558 q 407 516 386 532 q 444 504 428 500 q 585 650 514 576 q 751 788 685 754 q 771 778 764 778 m 711 586 q 696 525 711 578 q 675 447 679 465 q 629 385 671 424 q 571 326 576 336 q 535 261 561 301 q 422 161 508 232 q 417 260 422 192 q 413 332 413 328 q 414 410 413 386 q 694 615 614 607 q 703 605 694 613 q 711 586 711 597 m 674 203 l 654 183 q 636 188 649 189 q 617 175 622 186 q 622 188 617 178 q 626 204 626 197 q 625 213 626 208 q 599 217 614 203 q 674 203 621 231 m 404 176 q 204 338 203 319 l 204 631 q 308 525 256 578 q 394 385 396 428 l 404 176 m 331 378 q 310 392 324 386 q 297 401 297 399 q 301 439 297 411 q 304 478 304 467 q 292 485 303 476 q 288 408 292 453 q 226 397 246 407 q 233 340 238 353 q 289 319 253 346 q 329 342 307 331 l 331 378 m 299 386 q 288 379 299 388 q 272 383 285 379 q 256 388 260 388 q 274 396 274 389 q 286 391 274 394 q 299 386 299 388 m 318 371 q 290 361 308 369 l 290 333 l 286 333 l 285 358 q 240 376 272 365 l 243 382 q 286 365 268 376 q 317 375 303 374 l 318 371 z "},"6":{"ha":1096,"x_min":0,"x_max":1096,"o":"m 981 456 q 956 517 981 468 q 908 571 928 571 q 785 549 900 571 l 785 576 q 794 612 785 585 q 803 650 803 639 q 809 725 803 671 q 815 785 815 779 q 699 864 815 810 q 560 933 568 926 l 189 651 l 179 343 q 190 307 178 317 q 310 225 236 278 q 365 181 357 189 q 407 139 393 157 l 432 139 q 606 301 490 197 q 775 454 722 404 q 783 479 779 460 q 792 503 786 499 q 835 528 821 525 q 868 526 831 526 q 950 440 950 526 q 916 345 950 406 q 858 279 882 285 q 842 321 850 301 q 797 340 835 340 q 717 308 761 340 q 632 243 674 276 q 581 200 599 243 q 592 192 592 199 q 579 172 592 186 q 563 156 563 156 q 586 163 575 151 q 603 174 597 174 q 617 164 601 168 q 601 139 604 150 q 607 138 604 138 q 633 159 611 138 q 682 188 656 181 q 688 196 688 188 q 669 246 688 204 q 786 318 744 318 q 821 301 811 318 q 847 258 843 263 q 938 338 890 260 q 981 456 981 410 m 667 747 q 451 543 596 675 q 525 632 465 567 q 574 708 571 682 q 657 772 622 761 q 667 747 657 756 m 599 821 q 340 624 436 703 q 347 650 340 646 q 582 847 422 714 q 599 821 582 839 m 771 778 q 603 603 718 710 q 415 429 510 517 l 217 646 q 353 751 232 667 q 472 833 468 833 q 479 829 479 833 q 478 825 479 828 q 476 821 476 822 q 483 818 476 818 q 521 849 492 818 q 576 901 561 890 l 607 881 q 271 635 418 756 q 326 594 294 594 q 335 589 336 594 q 333 579 331 582 q 669 840 499 746 q 689 821 678 838 q 711 790 708 793 q 694 797 708 790 q 669 803 679 803 q 551 708 658 803 q 375 551 382 558 q 407 516 386 532 q 444 504 428 500 q 585 650 514 576 q 751 788 685 754 q 771 778 764 778 m 711 586 q 696 525 711 578 q 675 447 679 465 q 629 385 671 424 q 571 326 576 336 q 535 261 561 301 q 422 161 508 232 q 417 260 422 192 q 413 332 413 328 q 414 410 413 386 q 694 615 614 607 q 703 605 694 613 q 711 586 711 597 m 674 203 l 654 183 q 636 188 649 189 q 617 175 622 186 q 622 188 617 178 q 626 204 626 197 q 625 213 626 208 q 599 217 614 203 q 674 203 621 231 m 404 176 q 204 338 203 319 l 204 631 q 313 524 258 578 q 404 382 404 425 l 404 176 m 331 378 q 310 392 324 386 q 297 401 297 399 q 301 439 297 411 q 304 478 304 467 q 292 485 303 476 q 288 408 292 453 q 226 397 246 407 q 233 340 238 353 q 289 319 253 346 q 329 342 307 331 l 331 378 m 299 386 q 288 379 299 388 q 272 383 285 379 q 256 388 260 388 q 274 396 274 389 q 286 391 274 394 q 299 386 299 388 m 318 371 q 290 361 308 369 l 290 333 l 286 333 l 285 358 q 240 376 272 365 l 243 382 q 286 365 268 376 q 317 375 303 374 l 318 371 m 549 -19 q 160 142 321 -19 q 0 533 0 304 q 160 925 0 763 q 549 1088 321 1088 q 935 925 775 1088 q 1096 533 1096 763 q 935 142 1096 304 q 549 -19 775 -19 m 549 22 q 906 172 757 22 q 1054 533 1054 321 q 906 896 1054 746 q 549 1046 757 1046 q 190 896 339 1046 q 42 533 42 746 q 190 172 42 321 q 549 22 339 22 z "},"7":{"ha":1096,"x_min":21,"x_max":1075,"o":"m 1075 533 q 921 157 1075 313 q 549 1 767 1 q 176 157 331 1 q 21 533 21 313 q 176 910 21 754 q 549 1067 331 1067 q 921 910 767 1067 q 1075 533 1075 754 m 981 456 q 956 517 981 468 q 908 571 928 571 q 785 549 900 571 l 785 576 q 794 612 785 585 q 803 650 803 639 q 809 725 803 671 q 815 785 815 779 q 699 864 815 810 q 560 933 568 926 l 189 651 l 175 347 q 194 307 175 324 q 310 233 238 282 q 407 139 378 179 l 432 139 q 606 301 490 197 q 775 454 722 404 q 783 479 779 460 q 792 503 786 499 q 835 528 821 525 q 868 526 831 526 q 950 440 950 526 q 916 345 950 406 q 858 279 882 285 q 842 321 850 301 q 797 340 835 340 q 717 308 761 340 q 632 243 674 276 q 581 200 599 243 q 592 192 592 199 q 579 172 592 186 q 563 156 563 156 q 586 163 575 151 q 603 174 597 174 q 617 164 601 168 q 601 139 604 150 q 607 138 604 138 q 633 159 611 138 q 682 188 656 181 q 688 196 688 188 q 669 246 688 204 q 786 318 744 318 q 821 301 811 318 q 847 258 843 263 q 938 338 890 260 q 981 456 981 410 m 667 747 q 451 543 596 675 q 525 632 465 567 q 574 708 571 682 q 657 772 622 761 q 667 747 657 756 m 599 821 q 340 624 436 703 q 347 650 340 646 q 582 847 422 714 q 599 821 582 839 m 771 778 q 603 603 718 710 q 415 429 510 517 l 217 646 q 353 751 232 667 q 472 833 468 833 q 479 829 479 833 q 478 825 479 828 q 476 821 476 822 q 483 818 476 818 q 521 849 492 818 q 576 901 561 890 l 607 881 q 271 635 418 756 q 326 594 294 594 q 335 589 336 594 q 333 579 331 582 q 669 840 499 746 q 689 821 678 838 q 711 790 708 793 q 694 797 708 790 q 669 803 679 803 q 551 708 658 803 q 375 551 382 558 q 407 516 386 532 q 444 504 428 500 q 585 650 514 576 q 751 788 685 754 q 771 778 764 778 m 711 586 q 696 525 711 578 q 675 447 679 465 q 629 385 671 424 q 571 326 576 336 q 535 261 561 301 q 422 161 508 232 q 417 260 422 192 q 413 332 413 328 q 414 410 413 386 q 694 615 614 607 q 703 605 694 613 q 711 586 711 597 m 674 203 l 654 183 q 636 188 649 189 q 617 175 622 186 q 622 188 617 178 q 626 204 626 197 q 625 213 626 208 q 599 217 614 203 q 674 203 621 231 m 404 176 q 204 338 203 319 l 204 631 q 308 525 256 578 q 394 385 396 428 l 404 176 m 331 378 q 310 392 324 386 q 297 401 297 399 q 301 439 297 411 q 304 478 304 467 q 292 485 303 476 q 288 408 292 453 q 226 397 246 407 q 233 340 238 353 q 289 319 253 346 q 329 342 307 331 l 331 378 m 299 386 q 288 379 299 388 q 272 383 285 379 q 256 388 260 388 q 274 396 274 389 q 286 391 274 394 q 299 386 299 388 m 318 371 q 290 361 308 369 l 290 333 l 286 333 l 285 358 q 240 376 272 365 l 243 382 q 286 365 268 376 q 317 375 303 374 l 318 371 z "},"8":{"ha":1096,"x_min":0,"x_max":1096,"o":"m 981 456 q 956 517 981 468 q 908 571 928 571 q 785 549 900 571 l 785 576 q 794 612 785 585 q 803 650 803 639 q 809 725 803 671 q 815 785 815 779 q 699 864 815 810 q 560 933 568 926 l 189 651 l 179 343 q 190 307 178 317 q 310 225 236 278 q 365 181 357 189 q 407 139 393 157 l 432 139 q 606 301 490 197 q 775 454 722 404 q 783 479 779 460 q 792 503 786 499 q 835 528 821 525 q 868 526 831 526 q 950 440 950 526 q 916 345 950 406 q 858 279 882 285 q 842 321 850 301 q 797 340 835 340 q 717 308 761 340 q 632 243 674 276 q 581 200 599 243 q 592 192 592 199 q 579 172 592 186 q 563 156 563 156 q 586 163 575 151 q 603 174 597 174 q 617 164 601 168 q 601 139 604 150 q 607 138 604 138 q 633 159 611 138 q 682 188 656 181 q 688 196 688 188 q 669 246 688 204 q 786 318 744 318 q 821 301 811 318 q 847 258 843 263 q 938 338 890 260 q 981 456 981 410 m 667 747 q 451 543 596 675 q 525 632 465 567 q 574 708 571 682 q 657 772 622 761 q 667 747 657 756 m 599 821 q 340 624 436 703 q 347 650 340 646 q 582 847 422 714 q 599 821 582 839 m 771 778 q 603 603 718 710 q 415 429 510 517 l 217 646 q 353 751 232 667 q 472 833 468 833 q 479 829 479 833 q 478 825 479 828 q 476 821 476 822 q 483 818 476 818 q 521 849 492 818 q 576 901 561 890 l 607 881 q 271 635 418 756 q 326 594 294 594 q 335 589 336 594 q 333 579 331 582 q 669 840 499 746 q 689 821 678 838 q 711 790 708 793 q 694 797 708 790 q 669 803 679 803 q 551 708 658 803 q 375 551 382 558 q 407 516 386 532 q 444 504 428 500 q 585 650 514 576 q 751 788 685 754 q 771 778 764 778 m 711 586 q 696 525 711 578 q 675 447 679 465 q 629 385 671 424 q 571 326 576 336 q 535 261 561 301 q 422 161 508 232 q 417 260 422 192 q 413 332 413 328 q 414 410 413 386 q 694 615 614 607 q 703 605 694 613 q 711 586 711 597 m 674 203 l 654 183 q 636 188 649 189 q 617 175 622 186 q 622 188 617 178 q 626 204 626 197 q 625 213 626 208 q 599 217 614 203 q 674 203 621 231 m 404 176 q 204 338 203 319 l 204 631 q 313 524 258 578 q 404 382 404 425 l 404 176 m 331 378 q 310 392 324 386 q 297 401 297 399 q 301 439 297 411 q 304 478 304 467 q 292 485 303 476 q 288 408 292 453 q 226 397 246 407 q 233 340 238 353 q 289 319 253 346 q 329 342 307 331 l 331 378 m 299 386 q 288 379 299 388 q 272 383 285 379 q 256 388 260 388 q 274 396 274 389 q 286 391 274 394 q 299 386 299 388 m 318 371 q 290 361 308 369 l 290 333 l 286 333 l 285 358 q 240 376 272 365 l 243 382 q 286 365 268 376 q 317 375 303 374 l 318 371 m 549 -19 q 160 142 321 -19 q 0 533 0 304 q 160 925 0 763 q 549 1088 321 1088 q 935 925 775 1088 q 1096 533 1096 763 q 935 142 1096 304 q 549 -19 775 -19 m 549 22 q 906 172 757 22 q 1054 533 1054 321 q 906 896 1054 746 q 549 1046 757 1046 q 190 896 339 1046 q 42 533 42 746 q 190 172 42 321 q 549 22 339 22 z "},"9":{"ha":1096,"x_min":21,"x_max":1075,"o":"m 1075 533 q 921 157 1075 313 q 549 1 767 1 q 176 157 331 1 q 21 533 21 313 q 176 910 21 754 q 549 1067 331 1067 q 921 910 767 1067 q 1075 533 1075 754 m 981 456 q 956 517 981 468 q 908 571 928 571 q 785 549 900 571 l 785 576 q 794 612 785 585 q 803 650 803 639 q 809 725 803 671 q 815 785 815 779 q 699 864 815 810 q 560 933 568 926 l 189 651 l 175 347 q 194 307 175 324 q 310 233 238 282 q 407 139 378 179 l 432 139 q 606 301 490 197 q 775 454 722 404 q 783 479 779 460 q 792 503 786 499 q 835 528 821 525 q 868 526 831 526 q 950 440 950 526 q 916 345 950 406 q 858 279 882 285 q 842 321 850 301 q 797 340 835 340 q 717 308 761 340 q 632 243 674 276 q 581 200 599 243 q 592 192 592 199 q 579 172 592 186 q 563 156 563 156 q 586 163 575 151 q 603 174 597 174 q 617 164 601 168 q 601 139 604 150 q 607 138 604 138 q 633 159 611 138 q 682 188 656 181 q 688 196 688 188 q 669 246 688 204 q 786 318 744 318 q 821 301 811 318 q 847 258 843 263 q 938 338 890 260 q 981 456 981 410 m 667 747 q 451 543 596 675 q 525 632 465 567 q 574 708 571 682 q 657 772 622 761 q 667 747 657 756 m 599 821 q 340 624 436 703 q 347 650 340 646 q 582 847 422 714 q 599 821 582 839 m 771 778 q 603 603 718 710 q 415 429 510 517 l 217 646 q 353 751 232 667 q 472 833 468 833 q 479 829 479 833 q 478 825 479 828 q 476 821 476 822 q 483 818 476 818 q 521 849 492 818 q 576 901 561 890 l 607 881 q 271 635 418 756 q 326 594 294 594 q 335 589 336 594 q 333 579 331 582 q 669 840 499 746 q 689 821 678 838 q 711 790 708 793 q 694 797 708 790 q 669 803 679 803 q 551 708 658 803 q 375 551 382 558 q 407 516 386 532 q 444 504 428 500 q 585 650 514 576 q 751 788 685 754 q 771 778 764 778 m 711 586 q 696 525 711 578 q 675 447 679 465 q 629 385 671 424 q 571 326 576 336 q 535 261 561 301 q 422 161 508 232 q 417 260 422 192 q 413 332 413 328 q 414 410 413 386 q 694 615 614 607 q 703 605 694 613 q 711 586 711 597 m 674 203 l 654 183 q 636 188 649 189 q 617 175 622 186 q 622 188 617 178 q 626 204 626 197 q 625 213 626 208 q 599 217 614 203 q 674 203 621 231 m 404 176 q 204 338 203 319 l 204 631 q 308 525 256 578 q 394 385 396 428 l 404 176 m 331 378 q 310 392 324 386 q 297 401 297 399 q 301 439 297 411 q 304 478 304 467 q 292 485 303 476 q 288 408 292 453 q 226 397 246 407 q 233 340 238 353 q 289 319 253 346 q 329 342 307 331 l 331 378 m 299 386 q 288 379 299 388 q 272 383 285 379 q 256 388 260 388 q 274 396 274 389 q 286 391 274 394 q 299 386 299 388 m 318 371 q 290 361 308 369 l 290 333 l 286 333 l 285 358 q 240 376 272 365 l 243 382 q 286 365 268 376 q 317 375 303 374 l 318 371 z "}," ":{"ha":1389,"x_min":0,"x_max":0,"o":""},"!":{"ha":1092,"x_min":26,"x_max":1050,"o":"m 592 228 q 683 164 592 164 l 683 144 l 393 144 l 393 164 q 485 228 485 164 l 485 768 q 375 764 400 768 q 299 730 319 757 q 264 635 279 703 l 244 635 l 246 835 l 833 835 l 832 635 l 814 635 q 758 751 799 726 q 665 768 735 768 l 590 768 l 592 228 m 538 1053 q 900 903 750 1053 q 1050 542 1050 753 q 900 180 1050 329 q 538 31 750 31 q 176 180 326 31 q 26 542 26 329 q 176 903 26 753 q 538 1053 326 1053 m 538 983 q 226 854 356 983 q 96 542 96 725 q 226 229 96 358 q 538 100 356 100 q 851 229 721 100 q 981 542 981 358 q 851 854 981 725 q 538 983 721 983 z "},"\"":{"ha":1096,"x_min":21,"x_max":1075,"o":"m 1075 533 q 921 157 1075 313 q 549 1 767 1 q 176 157 331 1 q 21 533 21 313 q 176 910 21 754 q 549 1067 331 1067 q 921 910 767 1067 q 1075 533 1075 754 m 981 456 q 956 517 981 468 q 908 571 928 571 q 785 549 900 571 l 785 576 q 794 612 785 585 q 803 650 803 639 q 809 725 803 671 q 815 785 815 779 q 699 864 815 810 q 560 933 568 926 l 189 651 l 175 347 q 194 307 175 324 q 310 233 238 282 q 407 139 378 179 l 432 139 q 606 301 490 197 q 775 454 722 404 q 783 479 779 460 q 792 503 786 499 q 835 528 821 525 q 868 526 831 526 q 950 440 950 526 q 916 345 950 406 q 858 279 882 285 q 842 321 850 301 q 797 340 835 340 q 717 308 761 340 q 632 243 674 276 q 581 200 599 243 q 592 192 592 199 q 579 172 592 186 q 563 156 563 156 q 586 163 575 151 q 603 174 597 174 q 617 164 601 168 q 601 139 604 150 q 607 138 604 138 q 633 159 611 138 q 682 188 656 181 q 688 196 688 188 q 669 246 688 204 q 786 318 744 318 q 821 301 811 318 q 847 258 843 263 q 938 338 890 260 q 981 456 981 410 m 667 747 q 451 543 596 675 q 525 632 465 567 q 574 708 571 682 q 657 772 622 761 q 667 747 657 756 m 599 821 q 340 624 436 703 q 347 650 340 646 q 582 847 422 714 q 599 821 582 839 m 771 778 q 603 603 718 710 q 415 429 510 517 l 217 646 q 353 751 232 667 q 472 833 468 833 q 479 829 479 833 q 478 825 479 828 q 476 821 476 822 q 483 818 476 818 q 521 849 492 818 q 576 901 561 890 l 607 881 q 271 635 418 756 q 326 594 294 594 q 335 589 336 594 q 333 579 331 582 q 669 840 499 746 q 689 821 678 838 q 711 790 708 793 q 694 797 708 790 q 669 803 679 803 q 551 708 658 803 q 375 551 382 558 q 407 516 386 532 q 444 504 428 500 q 585 650 514 576 q 751 788 685 754 q 771 778 764 778 m 711 586 q 696 525 711 578 q 675 447 679 465 q 629 385 671 424 q 571 326 576 336 q 535 261 561 301 q 422 161 508 232 q 417 260 422 192 q 413 332 413 328 q 414 410 413 386 q 694 615 614 607 q 703 605 694 613 q 711 586 711 597 m 674 203 l 654 183 q 636 188 649 189 q 617 175 622 186 q 622 188 617 178 q 626 204 626 197 q 625 213 626 208 q 599 217 614 203 q 674 203 621 231 m 404 176 q 204 338 203 319 l 204 631 q 308 525 256 578 q 394 385 396 428 l 404 176 m 331 378 q 310 392 324 386 q 297 401 297 399 q 301 439 297 411 q 304 478 304 467 q 292 485 303 476 q 288 408 292 453 q 226 397 246 407 q 233 340 238 353 q 289 319 253 346 q 329 342 307 331 l 331 378 m 299 386 q 288 379 299 388 q 272 383 285 379 q 256 388 260 388 q 274 396 274 389 q 286 391 274 394 q 299 386 299 388 m 318 371 q 290 361 308 369 l 290 333 l 286 333 l 285 358 q 240 376 272 365 l 243 382 q 286 365 268 376 q 317 375 303 374 l 318 371 z "},"#":{"ha":1092,"x_min":33,"x_max":1056,"o":"m 858 610 q 922 701 922 610 l 942 701 l 942 413 l 922 413 q 858 504 922 504 l 319 504 q 322 394 319 419 q 356 318 329 338 q 453 283 383 299 l 453 264 l 253 264 l 253 851 l 453 851 l 453 833 q 335 778 361 818 q 319 685 319 754 l 319 610 l 858 610 m 33 557 q 183 919 33 769 q 544 1068 333 1068 q 906 919 757 1068 q 1056 557 1056 769 q 906 196 1056 346 q 544 46 757 46 q 183 196 333 46 q 33 557 33 346 m 103 557 q 233 244 103 374 q 544 115 363 115 q 857 244 728 115 q 986 557 986 374 q 857 869 986 740 q 544 999 728 999 q 233 869 363 999 q 103 557 103 740 z "},"$":{"ha":1092,"x_min":33,"x_max":1056,"o":"m 729 817 q 747 857 747 835 q 710 926 747 888 l 724 940 l 928 736 l 914 721 q 844 760 876 760 q 804 742 822 760 l 424 360 q 503 285 483 300 q 582 256 547 250 q 674 297 614 260 l 688 285 l 544 143 l 129 558 l 271 700 l 285 686 q 239 581 239 622 q 294 488 239 544 l 347 435 l 729 817 m 183 196 q 108 271 183 196 q 33 557 33 346 q 183 919 33 769 q 544 1068 333 1068 q 906 919 757 1068 q 1056 557 1056 769 q 906 196 1056 346 q 544 46 757 46 q 183 196 333 46 m 233 244 q 298 180 233 244 q 544 115 363 115 q 857 244 728 115 q 986 557 986 374 q 857 869 986 740 q 544 999 728 999 q 233 869 363 999 q 103 557 103 740 q 233 244 103 374 z "},"%":{"ha":1092,"x_min":18,"x_max":1040,"o":"m 476 878 q 385 942 476 942 l 385 961 l 674 961 l 674 942 q 582 878 582 942 l 583 338 q 692 342 667 338 q 768 376 749 349 q 804 471 788 403 l 822 471 l 822 271 l 235 271 l 235 471 l 254 471 q 308 354 269 379 q 401 338 332 338 l 476 338 l 476 878 m 529 53 q 168 203 318 53 q 18 564 18 353 q 168 926 18 776 q 529 1075 318 1075 q 891 926 742 1075 q 1040 564 1040 776 q 891 203 1040 353 q 529 53 742 53 m 529 122 q 842 251 713 122 q 971 564 971 381 q 842 876 971 747 q 529 1006 713 1006 q 217 876 346 1006 q 88 564 88 747 q 217 251 88 381 q 529 122 346 122 z "},"&":{"ha":1092,"x_min":11,"x_max":1033,"o":"m 208 496 q 146 404 146 496 l 125 404 l 125 693 l 146 693 q 208 601 146 601 l 749 601 q 746 711 749 686 q 711 788 738 768 q 615 822 685 807 l 615 842 l 815 842 l 815 254 l 615 254 l 615 272 q 733 328 707 288 q 749 421 749 351 l 749 496 l 208 496 m 1033 549 q 884 187 1033 336 q 522 38 735 38 q 161 187 311 38 q 11 549 11 336 q 161 910 11 760 q 522 1060 311 1060 q 884 910 735 1060 q 1033 549 1033 760 m 964 549 q 835 861 964 732 q 522 990 706 990 q 210 861 339 990 q 81 549 81 732 q 210 236 81 365 q 522 107 339 107 q 835 236 706 107 q 964 549 964 365 z "},"'":{"ha":1096,"x_min":0,"x_max":1096,"o":"m 981 456 q 956 517 981 468 q 908 571 928 571 q 785 549 900 571 l 785 576 q 794 612 785 585 q 803 650 803 639 q 809 725 803 671 q 815 785 815 779 q 699 864 815 810 q 560 933 568 926 l 189 651 l 179 343 q 190 307 178 317 q 310 225 236 278 q 365 181 357 189 q 407 139 393 157 l 432 139 q 606 301 490 197 q 775 454 722 404 q 783 479 779 460 q 792 503 786 499 q 835 528 821 525 q 868 526 831 526 q 950 440 950 526 q 916 345 950 406 q 858 279 882 285 q 842 321 850 301 q 797 340 835 340 q 717 308 761 340 q 632 243 674 276 q 581 200 599 243 q 592 192 592 199 q 579 172 592 186 q 563 156 563 156 q 586 163 575 151 q 603 174 597 174 q 617 164 601 168 q 601 139 604 150 q 607 138 604 138 q 633 159 611 138 q 682 188 656 181 q 688 196 688 188 q 669 246 688 204 q 786 318 744 318 q 821 301 811 318 q 847 258 843 263 q 938 338 890 260 q 981 456 981 410 m 667 747 q 451 543 596 675 q 525 632 465 567 q 574 708 571 682 q 657 772 622 761 q 667 747 657 756 m 599 821 q 340 624 436 703 q 347 650 340 646 q 582 847 422 714 q 599 821 582 839 m 771 778 q 603 603 718 710 q 415 429 510 517 l 217 646 q 353 751 232 667 q 472 833 468 833 q 479 829 479 833 q 478 825 479 828 q 476 821 476 822 q 483 818 476 818 q 521 849 492 818 q 576 901 561 890 l 607 881 q 271 635 418 756 q 326 594 294 594 q 335 589 336 594 q 333 579 331 582 q 669 840 499 746 q 689 821 678 838 q 711 790 708 793 q 694 797 708 790 q 669 803 679 803 q 551 708 658 803 q 375 551 382 558 q 407 516 386 532 q 444 504 428 500 q 585 650 514 576 q 751 788 685 754 q 771 778 764 778 m 711 586 q 696 525 711 578 q 675 447 679 465 q 629 385 671 424 q 571 326 576 336 q 535 261 561 301 q 422 161 508 232 q 417 260 422 192 q 413 332 413 328 q 414 410 413 386 q 694 615 614 607 q 703 605 694 613 q 711 586 711 597 m 674 203 l 654 183 q 636 188 649 189 q 617 175 622 186 q 622 188 617 178 q 626 204 626 197 q 625 213 626 208 q 599 217 614 203 q 674 203 621 231 m 404 176 q 204 338 203 319 l 204 631 q 313 524 258 578 q 404 382 404 425 l 404 176 m 331 378 q 310 392 324 386 q 297 401 297 399 q 301 439 297 411 q 304 478 304 467 q 292 485 303 476 q 288 408 292 453 q 226 397 246 407 q 233 340 238 353 q 289 319 253 346 q 329 342 307 331 l 331 378 m 299 386 q 288 379 299 388 q 272 383 285 379 q 256 388 260 388 q 274 396 274 389 q 286 391 274 394 q 299 386 299 388 m 318 371 q 290 361 308 369 l 290 333 l 286 333 l 285 358 q 240 376 272 365 l 243 382 q 286 365 268 376 q 317 375 303 374 l 318 371 m 549 -19 q 160 142 321 -19 q 0 533 0 304 q 160 925 0 763 q 549 1088 321 1088 q 935 925 775 1088 q 1096 533 1096 763 q 935 142 1096 304 q 549 -19 775 -19 m 549 22 q 906 172 757 22 q 1054 533 1054 321 q 906 896 1054 746 q 549 1046 757 1046 q 190 896 339 1046 q 42 533 42 746 q 190 172 42 321 q 549 22 339 22 z "},"(":{"ha":985,"x_min":49,"x_max":1007,"o":"m 982 1182 l 781 1410 l 900 785 l 428 975 l 828 531 l 285 588 l 565 435 l 218 158 l 756 231 l 690 -235 l 979 -79 l 1001 -122 l 628 -322 l 699 174 l 49 86 l 478 426 l 50 661 l 707 593 l 250 1099 l 829 865 l 682 1599 l 1007 1224 l 982 1182 z "},")":{"ha":1347,"x_min":-24,"x_max":1257,"o":"m -4 1232 l 343 1440 l 124 796 l 743 982 l 353 556 l 1257 246 l 343 264 l 1028 -167 l 317 -18 l 361 -372 l -24 -119 l 3 -79 l 300 -274 l 260 43 l 772 -64 l 169 315 l 947 300 l 267 533 l 588 885 l 38 719 l 235 1318 l -4 1172 l -4 1232 z "},"*":{"ha":1092,"x_min":11,"x_max":1033,"o":"m 339 289 q 319 249 319 271 q 358 179 319 218 l 344 165 l 139 369 l 153 385 q 224 346 192 346 q 263 364 244 346 l 644 746 q 565 821 585 806 q 485 850 519 856 q 394 808 454 846 l 381 821 l 522 963 l 938 547 l 796 406 l 783 419 q 829 525 829 483 q 772 618 829 561 l 719 671 l 339 289 m 884 910 q 959 835 884 910 q 1033 549 1033 760 q 884 187 1033 336 q 522 38 735 38 q 161 187 311 38 q 11 549 11 336 q 161 910 11 760 q 522 1060 311 1060 q 884 910 735 1060 m 835 861 q 770 926 835 861 q 522 990 706 990 q 210 861 339 990 q 81 549 81 732 q 210 236 81 365 q 522 107 339 107 q 835 236 706 107 q 964 549 964 365 q 835 861 964 732 z "},"+":{"ha":1096,"x_min":0,"x_max":1096,"o":"m 981 456 q 956 517 981 468 q 908 571 928 571 q 785 549 900 571 l 785 576 q 794 612 785 585 q 803 650 803 639 q 809 725 803 671 q 815 785 815 779 q 699 864 815 810 q 560 933 568 926 l 189 651 l 179 343 q 190 307 178 317 q 310 225 236 278 q 365 181 357 189 q 407 139 393 157 l 432 139 q 606 301 490 197 q 775 454 722 404 q 783 479 779 460 q 792 503 786 499 q 835 528 821 525 q 868 526 831 526 q 950 440 950 526 q 916 345 950 406 q 858 279 882 285 q 842 321 850 301 q 797 340 835 340 q 717 308 761 340 q 632 243 674 276 q 581 200 599 243 q 592 192 592 199 q 579 172 592 186 q 563 156 563 156 q 586 163 575 151 q 603 174 597 174 q 617 164 601 168 q 601 139 604 150 q 607 138 604 138 q 633 159 611 138 q 682 188 656 181 q 688 196 688 188 q 669 246 688 204 q 786 318 744 318 q 821 301 811 318 q 847 258 843 263 q 938 338 890 260 q 981 456 981 410 m 667 747 q 451 543 596 675 q 525 632 465 567 q 574 708 571 682 q 657 772 622 761 q 667 747 657 756 m 599 821 q 340 624 436 703 q 347 650 340 646 q 582 847 422 714 q 599 821 582 839 m 771 778 q 603 603 718 710 q 415 429 510 517 l 217 646 q 353 751 232 667 q 472 833 468 833 q 479 829 479 833 q 478 825 479 828 q 476 821 476 822 q 483 818 476 818 q 521 849 492 818 q 576 901 561 890 l 607 881 q 271 635 418 756 q 326 594 294 594 q 335 589 336 594 q 333 579 331 582 q 669 840 499 746 q 689 821 678 838 q 711 790 708 793 q 694 797 708 790 q 669 803 679 803 q 551 708 658 803 q 375 551 382 558 q 407 516 386 532 q 444 504 428 500 q 585 650 514 576 q 751 788 685 754 q 771 778 764 778 m 711 586 q 696 525 711 578 q 675 447 679 465 q 629 385 671 424 q 571 326 576 336 q 535 261 561 301 q 422 161 508 232 q 417 260 422 192 q 413 332 413 328 q 414 410 413 386 q 694 615 614 607 q 703 605 694 613 q 711 586 711 597 m 674 203 l 654 183 q 636 188 649 189 q 617 175 622 186 q 622 188 617 178 q 626 204 626 197 q 625 213 626 208 q 599 217 614 203 q 674 203 621 231 m 404 176 q 204 338 203 319 l 204 631 q 313 524 258 578 q 404 382 404 425 l 404 176 m 331 378 q 310 392 324 386 q 297 401 297 399 q 301 439 297 411 q 304 478 304 467 q 292 485 303 476 q 288 408 292 453 q 226 397 246 407 q 233 340 238 353 q 289 319 253 346 q 329 342 307 331 l 331 378 m 299 386 q 288 379 299 388 q 272 383 285 379 q 256 388 260 388 q 274 396 274 389 q 286 391 274 394 q 299 386 299 388 m 318 371 q 290 361 308 369 l 290 333 l 286 333 l 285 358 q 240 376 272 365 l 243 382 q 286 365 268 376 q 317 375 303 374 l 318 371 m 549 -19 q 160 142 321 -19 q 0 533 0 304 q 160 925 0 763 q 549 1088 321 1088 q 935 925 775 1088 q 1096 533 1096 763 q 935 142 1096 304 q 549 -19 775 -19 m 549 22 q 906 172 757 22 q 1054 533 1054 321 q 906 896 1054 746 q 549 1046 757 1046 q 190 896 339 1046 q 42 533 42 746 q 190 172 42 321 q 549 22 339 22 z "},",":{"ha":1096,"x_min":21,"x_max":1075,"o":"m 1075 533 q 921 157 1075 313 q 549 1 767 1 q 176 157 331 1 q 21 533 21 313 q 176 910 21 754 q 549 1067 331 1067 q 921 910 767 1067 q 1075 533 1075 754 m 981 456 q 956 517 981 468 q 908 571 928 571 q 785 549 900 571 l 785 576 q 794 612 785 585 q 803 650 803 639 q 809 725 803 671 q 815 785 815 779 q 699 864 815 810 q 560 933 568 926 l 189 651 l 175 347 q 194 307 175 324 q 310 233 238 282 q 407 139 378 179 l 432 139 q 606 301 490 197 q 775 454 722 404 q 783 479 779 460 q 792 503 786 499 q 835 528 821 525 q 868 526 831 526 q 950 440 950 526 q 916 345 950 406 q 858 279 882 285 q 842 321 850 301 q 797 340 835 340 q 717 308 761 340 q 632 243 674 276 q 581 200 599 243 q 592 192 592 199 q 579 172 592 186 q 563 156 563 156 q 586 163 575 151 q 603 174 597 174 q 617 164 601 168 q 601 139 604 150 q 607 138 604 138 q 633 159 611 138 q 682 188 656 181 q 688 196 688 188 q 669 246 688 204 q 786 318 744 318 q 821 301 811 318 q 847 258 843 263 q 938 338 890 260 q 981 456 981 410 m 667 747 q 451 543 596 675 q 525 632 465 567 q 574 708 571 682 q 657 772 622 761 q 667 747 657 756 m 599 821 q 340 624 436 703 q 347 650 340 646 q 582 847 422 714 q 599 821 582 839 m 771 778 q 603 603 718 710 q 415 429 510 517 l 217 646 q 353 751 232 667 q 472 833 468 833 q 479 829 479 833 q 478 825 479 828 q 476 821 476 822 q 483 818 476 818 q 521 849 492 818 q 576 901 561 890 l 607 881 q 271 635 418 756 q 326 594 294 594 q 335 589 336 594 q 333 579 331 582 q 669 840 499 746 q 689 821 678 838 q 711 790 708 793 q 694 797 708 790 q 669 803 679 803 q 551 708 658 803 q 375 551 382 558 q 407 516 386 532 q 444 504 428 500 q 585 650 514 576 q 751 788 685 754 q 771 778 764 778 m 711 586 q 696 525 711 578 q 675 447 679 465 q 629 385 671 424 q 571 326 576 336 q 535 261 561 301 q 422 161 508 232 q 417 260 422 192 q 413 332 413 328 q 414 410 413 386 q 694 615 614 607 q 703 605 694 613 q 711 586 711 597 m 674 203 l 654 183 q 636 188 649 189 q 617 175 622 186 q 622 188 617 178 q 626 204 626 197 q 625 213 626 208 q 599 217 614 203 q 674 203 621 231 m 404 176 q 204 338 203 319 l 204 631 q 308 525 256 578 q 394 385 396 428 l 404 176 m 331 378 q 310 392 324 386 q 297 401 297 399 q 301 439 297 411 q 304 478 304 467 q 292 485 303 476 q 288 408 292 453 q 226 397 246 407 q 233 340 238 353 q 289 319 253 346 q 329 342 307 331 l 331 378 m 299 386 q 288 379 299 388 q 272 383 285 379 q 256 388 260 388 q 274 396 274 389 q 286 391 274 394 q 299 386 299 388 m 318 371 q 290 361 308 369 l 290 333 l 286 333 l 285 358 q 240 376 272 365 l 243 382 q 286 365 268 376 q 317 375 303 374 l 318 371 z "},"-":{"ha":1096,"x_min":0,"x_max":1096,"o":"m 981 456 q 956 517 981 468 q 908 571 928 571 q 785 549 900 571 l 785 576 q 794 612 785 585 q 803 650 803 639 q 809 725 803 671 q 815 785 815 779 q 699 864 815 810 q 560 933 568 926 l 189 651 l 179 343 q 190 307 178 317 q 310 225 236 278 q 365 181 357 189 q 407 139 393 157 l 432 139 q 606 301 490 197 q 775 454 722 404 q 783 479 779 460 q 792 503 786 499 q 835 528 821 525 q 868 526 831 526 q 950 440 950 526 q 916 345 950 406 q 858 279 882 285 q 842 321 850 301 q 797 340 835 340 q 717 308 761 340 q 632 243 674 276 q 581 200 599 243 q 592 192 592 199 q 579 172 592 186 q 563 156 563 156 q 586 163 575 151 q 603 174 597 174 q 617 164 601 168 q 601 139 604 150 q 607 138 604 138 q 633 159 611 138 q 682 188 656 181 q 688 196 688 188 q 669 246 688 204 q 786 318 744 318 q 821 301 811 318 q 847 258 843 263 q 938 338 890 260 q 981 456 981 410 m 667 747 q 451 543 596 675 q 525 632 465 567 q 574 708 571 682 q 657 772 622 761 q 667 747 657 756 m 599 821 q 340 624 436 703 q 347 650 340 646 q 582 847 422 714 q 599 821 582 839 m 771 778 q 603 603 718 710 q 415 429 510 517 l 217 646 q 353 751 232 667 q 472 833 468 833 q 479 829 479 833 q 478 825 479 828 q 476 821 476 822 q 483 818 476 818 q 521 849 492 818 q 576 901 561 890 l 607 881 q 271 635 418 756 q 326 594 294 594 q 335 589 336 594 q 333 579 331 582 q 669 840 499 746 q 689 821 678 838 q 711 790 708 793 q 694 797 708 790 q 669 803 679 803 q 551 708 658 803 q 375 551 382 558 q 407 516 386 532 q 444 504 428 500 q 585 650 514 576 q 751 788 685 754 q 771 778 764 778 m 711 586 q 696 525 711 578 q 675 447 679 465 q 629 385 671 424 q 571 326 576 336 q 535 261 561 301 q 422 161 508 232 q 417 260 422 192 q 413 332 413 328 q 414 410 413 386 q 694 615 614 607 q 703 605 694 613 q 711 586 711 597 m 674 203 l 654 183 q 636 188 649 189 q 617 175 622 186 q 622 188 617 178 q 626 204 626 197 q 625 213 626 208 q 599 217 614 203 q 674 203 621 231 m 404 176 q 204 338 203 319 l 204 631 q 313 524 258 578 q 404 382 404 425 l 404 176 m 331 378 q 310 392 324 386 q 297 401 297 399 q 301 439 297 411 q 304 478 304 467 q 292 485 303 476 q 288 408 292 453 q 226 397 246 407 q 233 340 238 353 q 289 319 253 346 q 329 342 307 331 l 331 378 m 299 386 q 288 379 299 388 q 272 383 285 379 q 256 388 260 388 q 274 396 274 389 q 286 391 274 394 q 299 386 299 388 m 318 371 q 290 361 308 369 l 290 333 l 286 333 l 285 358 q 240 376 272 365 l 243 382 q 286 365 268 376 q 317 375 303 374 l 318 371 m 549 -19 q 160 142 321 -19 q 0 533 0 304 q 160 925 0 763 q 549 1088 321 1088 q 935 925 775 1088 q 1096 533 1096 763 q 935 142 1096 304 q 549 -19 775 -19 m 549 22 q 906 172 757 22 q 1054 533 1054 321 q 906 896 1054 746 q 549 1046 757 1046 q 190 896 339 1046 q 42 533 42 746 q 190 172 42 321 q 549 22 339 22 z "},"‐":{"ha":1096,"x_min":0,"x_max":1096,"o":"m 981 456 q 956 517 981 468 q 908 571 928 571 q 785 549 900 571 l 785 576 q 794 612 785 585 q 803 650 803 639 q 809 725 803 671 q 815 785 815 779 q 699 864 815 810 q 560 933 568 926 l 189 651 l 179 343 q 190 307 178 317 q 310 225 236 278 q 365 181 357 189 q 407 139 393 157 l 432 139 q 606 301 490 197 q 775 454 722 404 q 783 479 779 460 q 792 503 786 499 q 835 528 821 525 q 868 526 831 526 q 950 440 950 526 q 916 345 950 406 q 858 279 882 285 q 842 321 850 301 q 797 340 835 340 q 717 308 761 340 q 632 243 674 276 q 581 200 599 243 q 592 192 592 199 q 579 172 592 186 q 563 156 563 156 q 586 163 575 151 q 603 174 597 174 q 617 164 601 168 q 601 139 604 150 q 607 138 604 138 q 633 159 611 138 q 682 188 656 181 q 688 196 688 188 q 669 246 688 204 q 786 318 744 318 q 821 301 811 318 q 847 258 843 263 q 938 338 890 260 q 981 456 981 410 m 667 747 q 451 543 596 675 q 525 632 465 567 q 574 708 571 682 q 657 772 622 761 q 667 747 657 756 m 599 821 q 340 624 436 703 q 347 650 340 646 q 582 847 422 714 q 599 821 582 839 m 771 778 q 603 603 718 710 q 415 429 510 517 l 217 646 q 353 751 232 667 q 472 833 468 833 q 479 829 479 833 q 478 825 479 828 q 476 821 476 822 q 483 818 476 818 q 521 849 492 818 q 576 901 561 890 l 607 881 q 271 635 418 756 q 326 594 294 594 q 335 589 336 594 q 333 579 331 582 q 669 840 499 746 q 689 821 678 838 q 711 790 708 793 q 694 797 708 790 q 669 803 679 803 q 551 708 658 803 q 375 551 382 558 q 407 516 386 532 q 444 504 428 500 q 585 650 514 576 q 751 788 685 754 q 771 778 764 778 m 711 586 q 696 525 711 578 q 675 447 679 465 q 629 385 671 424 q 571 326 576 336 q 535 261 561 301 q 422 161 508 232 q 417 260 422 192 q 413 332 413 328 q 414 410 413 386 q 694 615 614 607 q 703 605 694 613 q 711 586 711 597 m 674 203 l 654 183 q 636 188 649 189 q 617 175 622 186 q 622 188 617 178 q 626 204 626 197 q 625 213 626 208 q 599 217 614 203 q 674 203 621 231 m 404 176 q 204 338 203 319 l 204 631 q 313 524 258 578 q 404 382 404 425 l 404 176 m 331 378 q 310 392 324 386 q 297 401 297 399 q 301 439 297 411 q 304 478 304 467 q 292 485 303 476 q 288 408 292 453 q 226 397 246 407 q 233 340 238 353 q 289 319 253 346 q 329 342 307 331 l 331 378 m 299 386 q 288 379 299 388 q 272 383 285 379 q 256 388 260 388 q 274 396 274 389 q 286 391 274 394 q 299 386 299 388 m 318 371 q 290 361 308 369 l 290 333 l 286 333 l 285 358 q 240 376 272 365 l 243 382 q 286 365 268 376 q 317 375 303 374 l 318 371 m 549 -19 q 160 142 321 -19 q 0 533 0 304 q 160 925 0 763 q 549 1088 321 1088 q 935 925 775 1088 q 1096 533 1096 763 q 935 142 1096 304 q 549 -19 775 -19 m 549 22 q 906 172 757 22 q 1054 533 1054 321 q 906 896 1054 746 q 549 1046 757 1046 q 190 896 339 1046 q 42 533 42 746 q 190 172 42 321 q 549 22 339 22 z "},".":{"ha":1096,"x_min":21,"x_max":1075,"o":"m 1075 533 q 921 157 1075 313 q 549 1 767 1 q 176 157 331 1 q 21 533 21 313 q 176 910 21 754 q 549 1067 331 1067 q 921 910 767 1067 q 1075 533 1075 754 m 981 456 q 956 517 981 468 q 908 571 928 571 q 785 549 900 571 l 785 576 q 794 612 785 585 q 803 650 803 639 q 809 725 803 671 q 815 785 815 779 q 699 864 815 810 q 560 933 568 926 l 189 651 l 175 347 q 194 307 175 324 q 310 233 238 282 q 407 139 378 179 l 432 139 q 606 301 490 197 q 775 454 722 404 q 783 479 779 460 q 792 503 786 499 q 835 528 821 525 q 868 526 831 526 q 950 440 950 526 q 916 345 950 406 q 858 279 882 285 q 842 321 850 301 q 797 340 835 340 q 717 308 761 340 q 632 243 674 276 q 581 200 599 243 q 592 192 592 199 q 579 172 592 186 q 563 156 563 156 q 586 163 575 151 q 603 174 597 174 q 617 164 601 168 q 601 139 604 150 q 607 138 604 138 q 633 159 611 138 q 682 188 656 181 q 688 196 688 188 q 669 246 688 204 q 786 318 744 318 q 821 301 811 318 q 847 258 843 263 q 938 338 890 260 q 981 456 981 410 m 667 747 q 451 543 596 675 q 525 632 465 567 q 574 708 571 682 q 657 772 622 761 q 667 747 657 756 m 599 821 q 340 624 436 703 q 347 650 340 646 q 582 847 422 714 q 599 821 582 839 m 771 778 q 603 603 718 710 q 415 429 510 517 l 217 646 q 353 751 232 667 q 472 833 468 833 q 479 829 479 833 q 478 825 479 828 q 476 821 476 822 q 483 818 476 818 q 521 849 492 818 q 576 901 561 890 l 607 881 q 271 635 418 756 q 326 594 294 594 q 335 589 336 594 q 333 579 331 582 q 669 840 499 746 q 689 821 678 838 q 711 790 708 793 q 694 797 708 790 q 669 803 679 803 q 551 708 658 803 q 375 551 382 558 q 407 516 386 532 q 444 504 428 500 q 585 650 514 576 q 751 788 685 754 q 771 778 764 778 m 711 586 q 696 525 711 578 q 675 447 679 465 q 629 385 671 424 q 571 326 576 336 q 535 261 561 301 q 422 161 508 232 q 417 260 422 192 q 413 332 413 328 q 414 410 413 386 q 694 615 614 607 q 703 605 694 613 q 711 586 711 597 m 674 203 l 654 183 q 636 188 649 189 q 617 175 622 186 q 622 188 617 178 q 626 204 626 197 q 625 213 626 208 q 599 217 614 203 q 674 203 621 231 m 404 176 q 204 338 203 319 l 204 631 q 308 525 256 578 q 394 385 396 428 l 404 176 m 331 378 q 310 392 324 386 q 297 401 297 399 q 301 439 297 411 q 304 478 304 467 q 292 485 303 476 q 288 408 292 453 q 226 397 246 407 q 233 340 238 353 q 289 319 253 346 q 329 342 307 331 l 331 378 m 299 386 q 288 379 299 388 q 272 383 285 379 q 256 388 260 388 q 274 396 274 389 q 286 391 274 394 q 299 386 299 388 m 318 371 q 290 361 308 369 l 290 333 l 286 333 l 285 358 q 240 376 272 365 l 243 382 q 286 365 268 376 q 317 375 303 374 l 318 371 z "},"/":{"ha":1096,"x_min":0,"x_max":1096,"o":"m 981 456 q 956 517 981 468 q 908 571 928 571 q 785 549 900 571 l 785 576 q 794 612 785 585 q 803 650 803 639 q 809 725 803 671 q 815 785 815 779 q 699 864 815 810 q 560 933 568 926 l 189 651 l 179 343 q 190 307 178 317 q 310 225 236 278 q 365 181 357 189 q 407 139 393 157 l 432 139 q 606 301 490 197 q 775 454 722 404 q 783 479 779 460 q 792 503 786 499 q 835 528 821 525 q 868 526 831 526 q 950 440 950 526 q 916 345 950 406 q 858 279 882 285 q 842 321 850 301 q 797 340 835 340 q 717 308 761 340 q 632 243 674 276 q 581 200 599 243 q 592 192 592 199 q 579 172 592 186 q 563 156 563 156 q 586 163 575 151 q 603 174 597 174 q 617 164 601 168 q 601 139 604 150 q 607 138 604 138 q 633 159 611 138 q 682 188 656 181 q 688 196 688 188 q 669 246 688 204 q 786 318 744 318 q 821 301 811 318 q 847 258 843 263 q 938 338 890 260 q 981 456 981 410 m 667 747 q 451 543 596 675 q 525 632 465 567 q 574 708 571 682 q 657 772 622 761 q 667 747 657 756 m 599 821 q 340 624 436 703 q 347 650 340 646 q 582 847 422 714 q 599 821 582 839 m 771 778 q 603 603 718 710 q 415 429 510 517 l 217 646 q 353 751 232 667 q 472 833 468 833 q 479 829 479 833 q 478 825 479 828 q 476 821 476 822 q 483 818 476 818 q 521 849 492 818 q 576 901 561 890 l 607 881 q 271 635 418 756 q 326 594 294 594 q 335 589 336 594 q 333 579 331 582 q 669 840 499 746 q 689 821 678 838 q 711 790 708 793 q 694 797 708 790 q 669 803 679 803 q 551 708 658 803 q 375 551 382 558 q 407 516 386 532 q 444 504 428 500 q 585 650 514 576 q 751 788 685 754 q 771 778 764 778 m 711 586 q 696 525 711 578 q 675 447 679 465 q 629 385 671 424 q 571 326 576 336 q 535 261 561 301 q 422 161 508 232 q 417 260 422 192 q 413 332 413 328 q 414 410 413 386 q 694 615 614 607 q 703 605 694 613 q 711 586 711 597 m 674 203 l 654 183 q 636 188 649 189 q 617 175 622 186 q 622 188 617 178 q 626 204 626 197 q 625 213 626 208 q 599 217 614 203 q 674 203 621 231 m 404 176 q 204 338 203 319 l 204 631 q 313 524 258 578 q 404 382 404 425 l 404 176 m 331 378 q 310 392 324 386 q 297 401 297 399 q 301 439 297 411 q 304 478 304 467 q 292 485 303 476 q 288 408 292 453 q 226 397 246 407 q 233 340 238 353 q 289 319 253 346 q 329 342 307 331 l 331 378 m 299 386 q 288 379 299 388 q 272 383 285 379 q 256 388 260 388 q 274 396 274 389 q 286 391 274 394 q 299 386 299 388 m 318 371 q 290 361 308 369 l 290 333 l 286 333 l 285 358 q 240 376 272 365 l 243 382 q 286 365 268 376 q 317 375 303 374 l 318 371 m 549 -19 q 160 142 321 -19 q 0 533 0 304 q 160 925 0 763 q 549 1088 321 1088 q 935 925 775 1088 q 1096 533 1096 763 q 935 142 1096 304 q 549 -19 775 -19 m 549 22 q 906 172 757 22 q 1054 533 1054 321 q 906 896 1054 746 q 549 1046 757 1046 q 190 896 339 1046 q 42 533 42 746 q 190 172 42 321 q 549 22 339 22 z "},":":{"ha":1096,"x_min":0,"x_max":1096,"o":"m 981 456 q 956 517 981 468 q 908 571 928 571 q 785 549 900 571 l 785 576 q 794 612 785 585 q 803 650 803 639 q 809 725 803 671 q 815 785 815 779 q 699 864 815 810 q 560 933 568 926 l 189 651 l 179 343 q 190 307 178 317 q 310 225 236 278 q 365 181 357 189 q 407 139 393 157 l 432 139 q 606 301 490 197 q 775 454 722 404 q 783 479 779 460 q 792 503 786 499 q 835 528 821 525 q 868 526 831 526 q 950 440 950 526 q 916 345 950 406 q 858 279 882 285 q 842 321 850 301 q 797 340 835 340 q 717 308 761 340 q 632 243 674 276 q 581 200 599 243 q 592 192 592 199 q 579 172 592 186 q 563 156 563 156 q 586 163 575 151 q 603 174 597 174 q 617 164 601 168 q 601 139 604 150 q 607 138 604 138 q 633 159 611 138 q 682 188 656 181 q 688 196 688 188 q 669 246 688 204 q 786 318 744 318 q 821 301 811 318 q 847 258 843 263 q 938 338 890 260 q 981 456 981 410 m 667 747 q 451 543 596 675 q 525 632 465 567 q 574 708 571 682 q 657 772 622 761 q 667 747 657 756 m 599 821 q 340 624 436 703 q 347 650 340 646 q 582 847 422 714 q 599 821 582 839 m 771 778 q 603 603 718 710 q 415 429 510 517 l 217 646 q 353 751 232 667 q 472 833 468 833 q 479 829 479 833 q 478 825 479 828 q 476 821 476 822 q 483 818 476 818 q 521 849 492 818 q 576 901 561 890 l 607 881 q 271 635 418 756 q 326 594 294 594 q 335 589 336 594 q 333 579 331 582 q 669 840 499 746 q 689 821 678 838 q 711 790 708 793 q 694 797 708 790 q 669 803 679 803 q 551 708 658 803 q 375 551 382 558 q 407 516 386 532 q 444 504 428 500 q 585 650 514 576 q 751 788 685 754 q 771 778 764 778 m 711 586 q 696 525 711 578 q 675 447 679 465 q 629 385 671 424 q 571 326 576 336 q 535 261 561 301 q 422 161 508 232 q 417 260 422 192 q 413 332 413 328 q 414 410 413 386 q 694 615 614 607 q 703 605 694 613 q 711 586 711 597 m 674 203 l 654 183 q 636 188 649 189 q 617 175 622 186 q 622 188 617 178 q 626 204 626 197 q 625 213 626 208 q 599 217 614 203 q 674 203 621 231 m 404 176 q 204 338 203 319 l 204 631 q 313 524 258 578 q 404 382 404 425 l 404 176 m 331 378 q 310 392 324 386 q 297 401 297 399 q 301 439 297 411 q 304 478 304 467 q 292 485 303 476 q 288 408 292 453 q 226 397 246 407 q 233 340 238 353 q 289 319 253 346 q 329 342 307 331 l 331 378 m 299 386 q 288 379 299 388 q 272 383 285 379 q 256 388 260 388 q 274 396 274 389 q 286 391 274 394 q 299 386 299 388 m 318 371 q 290 361 308 369 l 290 333 l 286 333 l 285 358 q 240 376 272 365 l 243 382 q 286 365 268 376 q 317 375 303 374 l 318 371 m 549 -19 q 160 142 321 -19 q 0 533 0 304 q 160 925 0 763 q 549 1088 321 1088 q 935 925 775 1088 q 1096 533 1096 763 q 935 142 1096 304 q 549 -19 775 -19 m 549 22 q 906 172 757 22 q 1054 533 1054 321 q 906 896 1054 746 q 549 1046 757 1046 q 190 896 339 1046 q 42 533 42 746 q 190 172 42 321 q 549 22 339 22 z "},";":{"ha":1096,"x_min":0,"x_max":1096,"o":"m 981 456 q 956 517 981 468 q 908 571 928 571 q 785 549 900 571 l 785 576 q 794 612 785 585 q 803 650 803 639 q 809 725 803 671 q 815 785 815 779 q 699 864 815 810 q 560 933 568 926 l 189 651 l 179 343 q 190 307 178 317 q 310 225 236 278 q 365 181 357 189 q 407 139 393 157 l 432 139 q 606 301 490 197 q 775 454 722 404 q 783 479 779 460 q 792 503 786 499 q 835 528 821 525 q 868 526 831 526 q 950 440 950 526 q 916 345 950 406 q 858 279 882 285 q 842 321 850 301 q 797 340 835 340 q 717 308 761 340 q 632 243 674 276 q 581 200 599 243 q 592 192 592 199 q 579 172 592 186 q 563 156 563 156 q 586 163 575 151 q 603 174 597 174 q 617 164 601 168 q 601 139 604 150 q 607 138 604 138 q 633 159 611 138 q 682 188 656 181 q 688 196 688 188 q 669 246 688 204 q 786 318 744 318 q 821 301 811 318 q 847 258 843 263 q 938 338 890 260 q 981 456 981 410 m 667 747 q 451 543 596 675 q 525 632 465 567 q 574 708 571 682 q 657 772 622 761 q 667 747 657 756 m 599 821 q 340 624 436 703 q 347 650 340 646 q 582 847 422 714 q 599 821 582 839 m 771 778 q 603 603 718 710 q 415 429 510 517 l 217 646 q 353 751 232 667 q 472 833 468 833 q 479 829 479 833 q 478 825 479 828 q 476 821 476 822 q 483 818 476 818 q 521 849 492 818 q 576 901 561 890 l 607 881 q 271 635 418 756 q 326 594 294 594 q 335 589 336 594 q 333 579 331 582 q 669 840 499 746 q 689 821 678 838 q 711 790 708 793 q 694 797 708 790 q 669 803 679 803 q 551 708 658 803 q 375 551 382 558 q 407 516 386 532 q 444 504 428 500 q 585 650 514 576 q 751 788 685 754 q 771 778 764 778 m 711 586 q 696 525 711 578 q 675 447 679 465 q 629 385 671 424 q 571 326 576 336 q 535 261 561 301 q 422 161 508 232 q 417 260 422 192 q 413 332 413 328 q 414 410 413 386 q 694 615 614 607 q 703 605 694 613 q 711 586 711 597 m 674 203 l 654 183 q 636 188 649 189 q 617 175 622 186 q 622 188 617 178 q 626 204 626 197 q 625 213 626 208 q 599 217 614 203 q 674 203 621 231 m 404 176 q 204 338 203 319 l 204 631 q 313 524 258 578 q 404 382 404 425 l 404 176 m 331 378 q 310 392 324 386 q 297 401 297 399 q 301 439 297 411 q 304 478 304 467 q 292 485 303 476 q 288 408 292 453 q 226 397 246 407 q 233 340 238 353 q 289 319 253 346 q 329 342 307 331 l 331 378 m 299 386 q 288 379 299 388 q 272 383 285 379 q 256 388 260 388 q 274 396 274 389 q 286 391 274 394 q 299 386 299 388 m 318 371 q 290 361 308 369 l 290 333 l 286 333 l 285 358 q 240 376 272 365 l 243 382 q 286 365 268 376 q 317 375 303 374 l 318 371 m 549 -19 q 160 142 321 -19 q 0 533 0 304 q 160 925 0 763 q 549 1088 321 1088 q 935 925 775 1088 q 1096 533 1096 763 q 935 142 1096 304 q 549 -19 775 -19 m 549 22 q 906 172 757 22 q 1054 533 1054 321 q 906 896 1054 746 q 549 1046 757 1046 q 190 896 339 1046 q 42 533 42 746 q 190 172 42 321 q 549 22 339 22 z "},"<":{"ha":1096,"x_min":0,"x_max":1096,"o":"m 981 456 q 956 517 981 468 q 908 571 928 571 q 785 549 900 571 l 785 576 q 794 612 785 585 q 803 650 803 639 q 809 725 803 671 q 815 785 815 779 q 699 864 815 810 q 560 933 568 926 l 189 651 l 179 343 q 190 307 178 317 q 310 225 236 278 q 365 181 357 189 q 407 139 393 157 l 432 139 q 606 301 490 197 q 775 454 722 404 q 783 479 779 460 q 792 503 786 499 q 835 528 821 525 q 868 526 831 526 q 950 440 950 526 q 916 345 950 406 q 858 279 882 285 q 842 321 850 301 q 797 340 835 340 q 717 308 761 340 q 632 243 674 276 q 581 200 599 243 q 592 192 592 199 q 579 172 592 186 q 563 156 563 156 q 586 163 575 151 q 603 174 597 174 q 617 164 601 168 q 601 139 604 150 q 607 138 604 138 q 633 159 611 138 q 682 188 656 181 q 688 196 688 188 q 669 246 688 204 q 786 318 744 318 q 821 301 811 318 q 847 258 843 263 q 938 338 890 260 q 981 456 981 410 m 667 747 q 451 543 596 675 q 525 632 465 567 q 574 708 571 682 q 657 772 622 761 q 667 747 657 756 m 599 821 q 340 624 436 703 q 347 650 340 646 q 582 847 422 714 q 599 821 582 839 m 771 778 q 603 603 718 710 q 415 429 510 517 l 217 646 q 353 751 232 667 q 472 833 468 833 q 479 829 479 833 q 478 825 479 828 q 476 821 476 822 q 483 818 476 818 q 521 849 492 818 q 576 901 561 890 l 607 881 q 271 635 418 756 q 326 594 294 594 q 335 589 336 594 q 333 579 331 582 q 669 840 499 746 q 689 821 678 838 q 711 790 708 793 q 694 797 708 790 q 669 803 679 803 q 551 708 658 803 q 375 551 382 558 q 407 516 386 532 q 444 504 428 500 q 585 650 514 576 q 751 788 685 754 q 771 778 764 778 m 711 586 q 696 525 711 578 q 675 447 679 465 q 629 385 671 424 q 571 326 576 336 q 535 261 561 301 q 422 161 508 232 q 417 260 422 192 q 413 332 413 328 q 414 410 413 386 q 694 615 614 607 q 703 605 694 613 q 711 586 711 597 m 674 203 l 654 183 q 636 188 649 189 q 617 175 622 186 q 622 188 617 178 q 626 204 626 197 q 625 213 626 208 q 599 217 614 203 q 674 203 621 231 m 404 176 q 204 338 203 319 l 204 631 q 313 524 258 578 q 404 382 404 425 l 404 176 m 331 378 q 310 392 324 386 q 297 401 297 399 q 301 439 297 411 q 304 478 304 467 q 292 485 303 476 q 288 408 292 453 q 226 397 246 407 q 233 340 238 353 q 289 319 253 346 q 329 342 307 331 l 331 378 m 299 386 q 288 379 299 388 q 272 383 285 379 q 256 388 260 388 q 274 396 274 389 q 286 391 274 394 q 299 386 299 388 m 318 371 q 290 361 308 369 l 290 333 l 286 333 l 285 358 q 240 376 272 365 l 243 382 q 286 365 268 376 q 317 375 303 374 l 318 371 m 549 -19 q 160 142 321 -19 q 0 533 0 304 q 160 925 0 763 q 549 1088 321 1088 q 935 925 775 1088 q 1096 533 1096 763 q 935 142 1096 304 q 549 -19 775 -19 m 549 22 q 906 172 757 22 q 1054 533 1054 321 q 906 896 1054 746 q 549 1046 757 1046 q 190 896 339 1046 q 42 533 42 746 q 190 172 42 321 q 549 22 339 22 z "},"=":{"ha":1096,"x_min":0,"x_max":1096,"o":"m 981 456 q 956 517 981 468 q 908 571 928 571 q 785 549 900 571 l 785 576 q 794 612 785 585 q 803 650 803 639 q 809 725 803 671 q 815 785 815 779 q 699 864 815 810 q 560 933 568 926 l 189 651 l 179 343 q 190 307 178 317 q 310 225 236 278 q 365 181 357 189 q 407 139 393 157 l 432 139 q 606 301 490 197 q 775 454 722 404 q 783 479 779 460 q 792 503 786 499 q 835 528 821 525 q 868 526 831 526 q 950 440 950 526 q 916 345 950 406 q 858 279 882 285 q 842 321 850 301 q 797 340 835 340 q 717 308 761 340 q 632 243 674 276 q 581 200 599 243 q 592 192 592 199 q 579 172 592 186 q 563 156 563 156 q 586 163 575 151 q 603 174 597 174 q 617 164 601 168 q 601 139 604 150 q 607 138 604 138 q 633 159 611 138 q 682 188 656 181 q 688 196 688 188 q 669 246 688 204 q 786 318 744 318 q 821 301 811 318 q 847 258 843 263 q 938 338 890 260 q 981 456 981 410 m 667 747 q 451 543 596 675 q 525 632 465 567 q 574 708 571 682 q 657 772 622 761 q 667 747 657 756 m 599 821 q 340 624 436 703 q 347 650 340 646 q 582 847 422 714 q 599 821 582 839 m 771 778 q 603 603 718 710 q 415 429 510 517 l 217 646 q 353 751 232 667 q 472 833 468 833 q 479 829 479 833 q 478 825 479 828 q 476 821 476 822 q 483 818 476 818 q 521 849 492 818 q 576 901 561 890 l 607 881 q 271 635 418 756 q 326 594 294 594 q 335 589 336 594 q 333 579 331 582 q 669 840 499 746 q 689 821 678 838 q 711 790 708 793 q 694 797 708 790 q 669 803 679 803 q 551 708 658 803 q 375 551 382 558 q 407 516 386 532 q 444 504 428 500 q 585 650 514 576 q 751 788 685 754 q 771 778 764 778 m 711 586 q 696 525 711 578 q 675 447 679 465 q 629 385 671 424 q 571 326 576 336 q 535 261 561 301 q 422 161 508 232 q 417 260 422 192 q 413 332 413 328 q 414 410 413 386 q 694 615 614 607 q 703 605 694 613 q 711 586 711 597 m 674 203 l 654 183 q 636 188 649 189 q 617 175 622 186 q 622 188 617 178 q 626 204 626 197 q 625 213 626 208 q 599 217 614 203 q 674 203 621 231 m 404 176 q 204 338 203 319 l 204 631 q 313 524 258 578 q 404 382 404 425 l 404 176 m 331 378 q 310 392 324 386 q 297 401 297 399 q 301 439 297 411 q 304 478 304 467 q 292 485 303 476 q 288 408 292 453 q 226 397 246 407 q 233 340 238 353 q 289 319 253 346 q 329 342 307 331 l 331 378 m 299 386 q 288 379 299 388 q 272 383 285 379 q 256 388 260 388 q 274 396 274 389 q 286 391 274 394 q 299 386 299 388 m 318 371 q 290 361 308 369 l 290 333 l 286 333 l 285 358 q 240 376 272 365 l 243 382 q 286 365 268 376 q 317 375 303 374 l 318 371 m 549 -19 q 160 142 321 -19 q 0 533 0 304 q 160 925 0 763 q 549 1088 321 1088 q 935 925 775 1088 q 1096 533 1096 763 q 935 142 1096 304 q 549 -19 775 -19 m 549 22 q 906 172 757 22 q 1054 533 1054 321 q 906 896 1054 746 q 549 1046 757 1046 q 190 896 339 1046 q 42 533 42 746 q 190 172 42 321 q 549 22 339 22 z "},">":{"ha":1096,"x_min":0,"x_max":1096,"o":"m 981 456 q 956 517 981 468 q 908 571 928 571 q 785 549 900 571 l 785 576 q 794 612 785 585 q 803 650 803 639 q 809 725 803 671 q 815 785 815 779 q 699 864 815 810 q 560 933 568 926 l 189 651 l 179 343 q 190 307 178 317 q 310 225 236 278 q 365 181 357 189 q 407 139 393 157 l 432 139 q 606 301 490 197 q 775 454 722 404 q 783 479 779 460 q 792 503 786 499 q 835 528 821 525 q 868 526 831 526 q 950 440 950 526 q 916 345 950 406 q 858 279 882 285 q 842 321 850 301 q 797 340 835 340 q 717 308 761 340 q 632 243 674 276 q 581 200 599 243 q 592 192 592 199 q 579 172 592 186 q 563 156 563 156 q 586 163 575 151 q 603 174 597 174 q 617 164 601 168 q 601 139 604 150 q 607 138 604 138 q 633 159 611 138 q 682 188 656 181 q 688 196 688 188 q 669 246 688 204 q 786 318 744 318 q 821 301 811 318 q 847 258 843 263 q 938 338 890 260 q 981 456 981 410 m 667 747 q 451 543 596 675 q 525 632 465 567 q 574 708 571 682 q 657 772 622 761 q 667 747 657 756 m 599 821 q 340 624 436 703 q 347 650 340 646 q 582 847 422 714 q 599 821 582 839 m 771 778 q 603 603 718 710 q 415 429 510 517 l 217 646 q 353 751 232 667 q 472 833 468 833 q 479 829 479 833 q 478 825 479 828 q 476 821 476 822 q 483 818 476 818 q 521 849 492 818 q 576 901 561 890 l 607 881 q 271 635 418 756 q 326 594 294 594 q 335 589 336 594 q 333 579 331 582 q 669 840 499 746 q 689 821 678 838 q 711 790 708 793 q 694 797 708 790 q 669 803 679 803 q 551 708 658 803 q 375 551 382 558 q 407 516 386 532 q 444 504 428 500 q 585 650 514 576 q 751 788 685 754 q 771 778 764 778 m 711 586 q 696 525 711 578 q 675 447 679 465 q 629 385 671 424 q 571 326 576 336 q 535 261 561 301 q 422 161 508 232 q 417 260 422 192 q 413 332 413 328 q 414 410 413 386 q 694 615 614 607 q 703 605 694 613 q 711 586 711 597 m 674 203 l 654 183 q 636 188 649 189 q 617 175 622 186 q 622 188 617 178 q 626 204 626 197 q 625 213 626 208 q 599 217 614 203 q 674 203 621 231 m 404 176 q 204 338 203 319 l 204 631 q 313 524 258 578 q 404 382 404 425 l 404 176 m 331 378 q 310 392 324 386 q 297 401 297 399 q 301 439 297 411 q 304 478 304 467 q 292 485 303 476 q 288 408 292 453 q 226 397 246 407 q 233 340 238 353 q 289 319 253 346 q 329 342 307 331 l 331 378 m 299 386 q 288 379 299 388 q 272 383 285 379 q 256 388 260 388 q 274 396 274 389 q 286 391 274 394 q 299 386 299 388 m 318 371 q 290 361 308 369 l 290 333 l 286 333 l 285 358 q 240 376 272 365 l 243 382 q 286 365 268 376 q 317 375 303 374 l 318 371 m 549 -19 q 160 142 321 -19 q 0 533 0 304 q 160 925 0 763 q 549 1088 321 1088 q 935 925 775 1088 q 1096 533 1096 763 q 935 142 1096 304 q 549 -19 775 -19 m 549 22 q 906 172 757 22 q 1054 533 1054 321 q 906 896 1054 746 q 549 1046 757 1046 q 190 896 339 1046 q 42 533 42 746 q 190 172 42 321 q 549 22 339 22 z "},"?":{"ha":1096,"x_min":0,"x_max":1096,"o":"m 981 456 q 956 517 981 468 q 908 571 928 571 q 785 549 900 571 l 785 576 q 794 612 785 585 q 803 650 803 639 q 809 725 803 671 q 815 785 815 779 q 699 864 815 810 q 560 933 568 926 l 189 651 l 179 343 q 190 307 178 317 q 310 225 236 278 q 365 181 357 189 q 407 139 393 157 l 432 139 q 606 301 490 197 q 775 454 722 404 q 783 479 779 460 q 792 503 786 499 q 835 528 821 525 q 868 526 831 526 q 950 440 950 526 q 916 345 950 406 q 858 279 882 285 q 842 321 850 301 q 797 340 835 340 q 717 308 761 340 q 632 243 674 276 q 581 200 599 243 q 592 192 592 199 q 579 172 592 186 q 563 156 563 156 q 586 163 575 151 q 603 174 597 174 q 617 164 601 168 q 601 139 604 150 q 607 138 604 138 q 633 159 611 138 q 682 188 656 181 q 688 196 688 188 q 669 246 688 204 q 786 318 744 318 q 821 301 811 318 q 847 258 843 263 q 938 338 890 260 q 981 456 981 410 m 667 747 q 451 543 596 675 q 525 632 465 567 q 574 708 571 682 q 657 772 622 761 q 667 747 657 756 m 599 821 q 340 624 436 703 q 347 650 340 646 q 582 847 422 714 q 599 821 582 839 m 771 778 q 603 603 718 710 q 415 429 510 517 l 217 646 q 353 751 232 667 q 472 833 468 833 q 479 829 479 833 q 478 825 479 828 q 476 821 476 822 q 483 818 476 818 q 521 849 492 818 q 576 901 561 890 l 607 881 q 271 635 418 756 q 326 594 294 594 q 335 589 336 594 q 333 579 331 582 q 669 840 499 746 q 689 821 678 838 q 711 790 708 793 q 694 797 708 790 q 669 803 679 803 q 551 708 658 803 q 375 551 382 558 q 407 516 386 532 q 444 504 428 500 q 585 650 514 576 q 751 788 685 754 q 771 778 764 778 m 711 586 q 696 525 711 578 q 675 447 679 465 q 629 385 671 424 q 571 326 576 336 q 535 261 561 301 q 422 161 508 232 q 417 260 422 192 q 413 332 413 328 q 414 410 413 386 q 694 615 614 607 q 703 605 694 613 q 711 586 711 597 m 674 203 l 654 183 q 636 188 649 189 q 617 175 622 186 q 622 188 617 178 q 626 204 626 197 q 625 213 626 208 q 599 217 614 203 q 674 203 621 231 m 404 176 q 204 338 203 319 l 204 631 q 313 524 258 578 q 404 382 404 425 l 404 176 m 331 378 q 310 392 324 386 q 297 401 297 399 q 301 439 297 411 q 304 478 304 467 q 292 485 303 476 q 288 408 292 453 q 226 397 246 407 q 233 340 238 353 q 289 319 253 346 q 329 342 307 331 l 331 378 m 299 386 q 288 379 299 388 q 272 383 285 379 q 256 388 260 388 q 274 396 274 389 q 286 391 274 394 q 299 386 299 388 m 318 371 q 290 361 308 369 l 290 333 l 286 333 l 285 358 q 240 376 272 365 l 243 382 q 286 365 268 376 q 317 375 303 374 l 318 371 m 549 -19 q 160 142 321 -19 q 0 533 0 304 q 160 925 0 763 q 549 1088 321 1088 q 935 925 775 1088 q 1096 533 1096 763 q 935 142 1096 304 q 549 -19 775 -19 m 549 22 q 906 172 757 22 q 1054 533 1054 321 q 906 896 1054 746 q 549 1046 757 1046 q 190 896 339 1046 q 42 533 42 746 q 190 172 42 321 q 549 22 339 22 z "},"@":{"ha":1092,"x_min":26,"x_max":1050,"o":"m 797 357 q 838 339 815 339 q 907 378 869 339 l 921 363 l 717 158 l 703 172 q 740 242 740 211 q 722 282 740 264 l 340 664 q 265 583 281 604 q 236 504 231 539 q 279 413 240 474 l 265 400 l 124 542 l 540 957 l 681 815 l 668 801 q 561 849 603 849 q 469 792 525 849 l 415 739 l 797 357 m 176 903 q 251 978 176 903 q 538 1053 326 1053 q 900 903 750 1053 q 1050 542 1050 753 q 900 180 1050 329 q 538 31 750 31 q 176 180 326 31 q 26 542 26 329 q 176 903 26 753 m 226 854 q 161 790 226 854 q 96 542 96 725 q 226 229 96 358 q 538 100 356 100 q 851 229 721 100 q 981 542 981 358 q 851 854 981 725 q 538 983 721 983 q 226 854 356 983 z "},"A":{"ha":903,"x_min":-18,"x_max":942,"o":"m 360 -125 l 451 25 l 540 -172 l 649 -217 l 782 18 l 826 -178 l 900 -71 l 933 -94 l 815 -268 l 757 -115 l 675 -272 l 521 -217 l 439 -64 l 385 -221 l 292 -108 l 117 -306 l -18 -94 l 17 -72 l 113 -221 l 272 -58 l 360 -125 m 176 1354 l 21 1181 l -10 1208 l 186 1428 l 314 1199 l 440 1319 l 496 1349 l 599 1099 l 653 1207 l 753 1089 l 824 1465 l 942 1217 l 903 1203 l 846 1319 l 807 951 l 661 1131 l 594 999 l 483 1293 l 456 1264 l 299 1107 l 176 1354 m 614 169 l 785 174 l 638 917 l 393 903 l 201 188 l 308 165 l 344 461 l 536 467 l 614 169 m 576 119 l 499 417 l 376 413 l 338 119 l 144 146 l 357 944 l 678 968 l 843 126 l 576 119 m 507 843 l 540 533 l 363 517 l 507 843 m 488 721 l 419 568 l 506 574 l 488 721 m 382 350 l 382 403 l 492 407 l 568 111 l 732 117 l 744 71 l 508 68 l 436 346 l 382 350 m 317 842 l 124 138 l 243 117 l 297 111 l 267 60 l 39 92 l 276 890 l 339 890 l 317 842 z "},"B":{"ha":975,"x_min":-18,"x_max":1007,"o":"m 113 -221 l 17 -72 l -18 -94 l 117 -306 l 253 -35 l 349 -262 q 539 -14 425 -176 l 681 -168 l 813 44 l 889 -268 l 1007 -94 l 972 -71 l 924 -133 q 872 36 907 -94 q 822 172 844 146 l 675 -65 l 526 43 l 372 -176 l 250 31 l 113 -221 m 306 1446 l 432 1178 l 522 1364 l 629 1144 l 765 1424 q 829 1074 794 1282 l 917 1489 l 975 1240 l 975 1160 l 924 1264 q 874 1093 903 1213 q 829 951 846 985 l 740 1271 l 622 1081 l 524 1251 l 432 1094 l 308 1338 l 200 1061 l -1 1203 l 4 1254 l 172 1151 l 306 1446 m 208 249 l 667 176 l 858 340 l 778 482 l 386 594 l 768 619 l 764 760 l 704 942 l 314 942 l 208 249 m 147 225 l 267 1007 l 735 1007 l 807 785 l 813 592 l 660 582 l 804 540 l 914 347 l 676 142 l 147 225 m 431 718 l 599 726 l 578 844 l 451 836 l 431 718 m 372 667 l 410 882 l 618 896 l 656 681 l 372 667 m 389 344 l 525 300 l 565 394 l 418 461 l 389 344 m 331 313 l 385 531 l 629 418 l 551 239 l 331 313 m 175 954 l 56 172 l 583 89 l 635 133 l 135 214 l 251 950 l 175 957 l 175 954 z "},"C":{"ha":846,"x_min":-6,"x_max":872,"o":"m 603 -106 l 513 31 l 397 -175 q 346 -106 390 -169 q 254 36 293 -31 l 125 -221 l 29 -72 l -6 -94 l 129 -306 l 256 -53 l 404 -278 l 507 -46 l 608 -169 l 683 4 l 753 -272 l 872 -100 l 838 -76 l 764 -183 l 692 88 l 603 -106 m 807 1324 l 846 1203 l 872 1247 l 793 1474 l 603 1151 l 564 1247 l 461 1465 l 394 1163 l 331 1304 l 218 1132 l 103 1350 l 11 1260 l 11 1196 l 89 1279 l 196 1026 l 324 1218 l 397 1054 l 474 1324 l 596 965 l 807 1324 m 444 965 l 303 914 l 176 793 l 176 475 l 229 285 l 475 183 l 674 219 l 765 379 l 735 399 l 632 440 l 589 278 l 396 264 l 269 472 l 294 646 l 372 800 l 494 793 l 563 724 l 642 807 l 444 965 m 454 1019 l 714 813 l 564 654 l 472 746 l 401 750 l 342 631 l 321 483 l 422 315 l 550 324 l 599 506 l 758 443 l 831 394 l 704 176 l 469 133 l 189 249 l 128 469 l 128 814 l 276 957 l 454 1019 m 376 93 l 96 210 l 35 429 l 35 775 l 183 917 l 242 942 l 110 810 l 114 460 l 181 231 l 457 121 l 508 128 l 610 149 l 611 138 l 376 93 m 533 349 l 464 344 l 469 374 l 500 490 l 564 468 l 533 349 m 533 676 l 478 621 l 390 708 l 407 742 l 469 739 l 533 676 z "},"D":{"ha":783,"x_min":-18,"x_max":821,"o":"m 682 -168 l 756 -61 l 789 -85 l 671 -258 l 533 -35 l 400 -217 l 253 -35 l 139 -158 l -18 -94 l 17 -72 l 122 -112 l 242 36 l 400 -142 l 522 39 l 682 -168 m 729 1340 l 782 1190 l 821 1204 l 729 1463 l 558 1156 l 476 1374 l 336 1136 l 174 1357 l -12 1224 l 0 1168 l 163 1286 l 319 1032 l 476 1251 l 543 1033 l 729 1340 m 235 253 l 499 258 l 700 488 l 603 754 l 403 882 l 142 867 l 235 253 m 174 197 l 63 932 l 411 954 l 646 803 l 764 483 l 519 204 l 174 197 m 353 479 l 478 496 l 488 660 l 346 733 l 342 708 l 353 479 m 293 408 l 279 713 l 300 828 l 532 692 l 536 442 l 293 408 m 453 182 l 429 153 l 125 144 l 24 825 l 60 836 l 167 179 l 453 182 m 435 503 l 463 507 l 474 647 l 354 707 l 358 663 l 435 611 l 435 503 z "},"E":{"ha":685,"x_min":-18,"x_max":724,"o":"m 117 -306 l -18 -94 l 17 -72 l 113 -221 l 192 -49 l 288 -172 l 468 196 l 607 -178 l 681 -71 l 715 -94 l 596 -268 l 471 69 l 285 -257 l 208 -147 l 117 -306 m 331 1064 l 176 1354 l 21 1181 l -10 1208 l 186 1428 l 336 1147 l 478 1282 l 632 1460 l 724 1201 l 685 1188 l 632 1338 l 476 1188 l 331 1064 m 182 343 l 569 331 l 569 375 l 315 394 l 310 565 l 463 604 l 468 681 l 303 699 l 303 903 l 500 858 l 500 986 l 189 1004 l 182 343 m 139 307 l 144 1065 l 540 1025 l 540 807 l 342 863 l 346 732 l 496 726 l 510 585 l 360 540 l 360 440 l 628 428 l 628 300 l 139 307 m 47 938 l 40 210 l 501 203 l 496 281 l 122 283 l 122 458 l 125 935 l 47 938 m 367 757 l 424 757 l 431 814 l 367 833 l 367 757 z "},"F":{"ha":685,"x_min":-18,"x_max":724,"o":"m -18 -94 l 17 -72 l 113 -221 l 269 71 l 360 -156 l 472 190 l 613 -183 l 685 -76 l 719 -100 l 601 -274 l 475 64 l 364 -278 l 263 -25 l 128 -310 l -18 -94 m 463 1279 l 354 1003 l 176 1354 l 21 1181 l -10 1208 l 186 1428 l 349 1089 l 468 1372 l 540 1211 l 632 1460 l 724 1201 l 685 1188 l 632 1338 l 540 1113 l 463 1279 m 214 274 l 372 286 l 335 400 l 265 592 l 449 610 l 449 693 l 258 649 l 239 833 l 494 871 l 525 979 l 138 903 l 214 274 m 164 226 l 85 946 l 588 1028 l 550 840 l 286 790 l 296 703 l 474 742 l 497 572 l 321 560 l 360 413 l 475 249 l 164 226 m 308 778 l 306 739 l 463 769 l 468 807 l 308 778 m 343 549 l 360 500 l 404 501 l 397 549 l 343 549 m 146 201 l 68 858 l 24 851 l 100 158 l 372 178 l 360 221 l 146 201 z "},"G":{"ha":778,"x_min":-18,"x_max":824,"o":"m 499 -14 l 407 -193 l 243 -83 l 117 -306 l -18 -94 l 17 -72 l 113 -221 l 243 -25 l 392 -117 l 493 68 l 610 -171 l 778 -65 l 813 -89 l 601 -262 l 499 -14 m 469 1196 l 331 1072 l 176 1354 l 21 1181 l -10 1208 l 186 1428 l 336 1156 l 478 1282 l 540 1140 l 663 1467 l 824 1206 l 785 1192 l 661 1344 l 546 1038 l 469 1196 m 488 411 l 469 283 l 342 214 l 219 296 l 194 500 l 232 706 l 382 889 l 546 768 l 615 814 l 583 871 l 303 1011 l 118 688 l 138 232 l 399 150 l 494 197 l 529 286 l 529 410 l 715 440 l 660 564 l 342 489 l 353 393 l 450 404 l 488 411 m 283 1058 l 619 890 l 649 778 l 528 725 l 386 849 l 264 685 l 226 493 l 251 317 l 340 256 l 436 306 l 450 365 l 328 365 l 313 510 l 679 606 l 754 419 l 557 386 l 557 281 l 517 178 l 392 118 l 90 196 l 90 694 l 283 1058 m 343 771 l 454 665 l 557 710 l 550 726 l 524 714 l 389 832 l 343 771 m 438 357 l 321 357 l 314 439 l 251 424 l 267 317 l 390 303 l 428 319 l 438 357 m 567 338 l 658 353 l 644 393 l 568 379 l 567 338 m 394 100 l 79 188 l 79 689 l 224 957 l 213 964 l 28 614 l 28 131 l 314 47 l 431 99 l 432 122 l 394 100 z "},"H":{"ha":746,"x_min":-18,"x_max":783,"o":"m 113 -221 l 17 -72 l -18 -94 l 117 -306 l 236 -119 l 419 -279 l 499 -75 l 654 -257 l 775 -101 l 740 -78 l 667 -185 l 479 -3 l 408 -172 l 239 -62 l 113 -221 m 176 1354 l 21 1181 l -10 1208 l 186 1428 l 343 1125 l 388 1186 l 557 1074 l 693 1453 l 783 1194 l 744 1181 l 681 1319 l 571 997 l 396 1110 l 343 1035 l 176 1354 m 122 197 l 253 133 l 258 386 l 492 406 l 569 126 l 635 114 l 525 897 l 479 904 l 440 476 l 253 444 l 324 878 l 246 936 l 272 858 l 122 197 m 90 165 l 226 869 l 181 1015 l 364 896 l 296 494 l 399 514 l 438 942 l 550 950 l 676 75 l 535 75 l 471 360 l 304 349 l 292 54 l 90 165 m 426 867 l 386 865 l 354 514 l 392 521 l 426 867 m 529 68 l 464 350 l 314 342 l 314 304 l 418 311 l 482 25 l 596 25 l 588 68 l 529 68 m 204 867 l 169 943 l 86 968 l 138 835 l 17 106 l 215 13 l 218 79 l 69 146 l 204 867 z "},"I":{"ha":813,"x_min":-18,"x_max":847,"o":"m 847 -89 l 814 -65 l 711 -178 l 476 71 l 368 -118 l 242 36 l 113 -221 l 17 -72 l -18 -94 l 117 -306 l 251 -51 l 376 -189 l 469 -26 l 703 -269 l 847 -89 m 406 1225 l 322 1014 l 181 1322 l 21 1181 l -10 1208 l 186 1428 l 319 1122 l 406 1336 l 557 1118 l 733 1467 l 847 1206 l 808 1192 l 732 1344 l 564 1043 l 406 1225 m 188 768 l 268 751 l 379 743 l 369 521 l 328 271 l 131 258 l 126 193 l 143 124 l 406 214 l 628 232 l 583 354 l 411 322 l 514 756 l 743 731 l 754 965 l 219 915 l 188 768 m 135 732 l 178 949 l 783 994 l 775 690 l 531 717 l 501 582 l 450 369 l 599 404 l 688 206 l 408 171 l 107 76 l 100 189 l 69 294 l 293 294 l 342 524 l 342 708 l 264 724 l 135 732 m 563 701 l 529 643 l 692 624 l 700 689 l 676 689 l 563 701 m 18 197 l 43 108 l 50 13 l 336 101 l 597 133 l 575 183 l 411 157 l 96 65 l 83 197 l 18 197 m 286 308 l 332 529 l 329 697 l 261 713 l 124 714 l 150 854 l 119 853 l 82 661 l 196 656 l 285 636 l 285 439 l 257 308 l 286 308 z "},"J":{"ha":846,"x_min":-18,"x_max":890,"o":"m 17 -72 l -18 -94 l 117 -306 l 226 -106 l 322 -208 l 465 -279 l 578 -49 l 701 -275 l 878 -93 l 843 -69 l 713 -185 l 583 47 l 460 -218 l 322 -144 l 207 -22 l 124 -221 l 17 -72 m 21 1181 l -10 1208 l 186 1428 l 315 1132 l 433 1186 l 583 1094 l 738 1454 l 890 1196 l 851 1182 l 738 1332 l 590 1038 l 442 1110 l 283 1063 l 182 1324 l 21 1181 m 233 829 l 511 851 l 449 382 l 407 217 l 332 217 l 292 407 l 140 338 l 251 142 l 511 135 l 561 344 l 564 635 l 558 835 l 760 835 l 731 972 l 442 963 l 199 974 l 233 829 m 197 789 l 131 1011 l 432 997 l 771 1025 l 813 796 l 718 796 l 610 800 l 610 338 l 546 93 l 226 107 l 71 357 l 308 472 l 356 254 l 374 253 l 401 390 l 456 800 l 197 789 m 32 247 l 165 31 l 453 17 l 469 78 l 215 96 l 108 282 l 32 247 m 154 882 l 89 885 l 140 713 l 408 726 l 356 315 l 369 276 l 439 781 l 183 775 l 154 882 m 622 721 l 708 719 l 696 790 l 619 786 l 622 721 z "},"K":{"ha":685,"x_min":-18,"x_max":725,"o":"m 160 -107 l 267 82 l 357 -146 l 469 74 l 608 -174 l 682 -67 l 717 -90 l 597 -264 l 469 -7 l 361 -268 l 260 -14 l 167 -178 l 110 -292 l -18 -94 l 17 -72 l 99 -211 l 160 -107 m 21 1181 l -10 1208 l 186 1428 l 285 1153 l 360 1286 l 476 1118 l 635 1465 l 725 1207 l 686 1193 l 633 1343 l 482 1067 l 349 1182 l 272 1067 l 168 1328 l 21 1181 m 160 214 l 213 232 l 297 542 l 440 492 l 458 261 l 583 251 l 522 489 l 389 581 l 600 831 l 565 940 l 317 613 l 393 978 l 267 954 l 160 214 m 108 153 l 231 990 l 447 1031 l 396 786 l 581 1031 l 647 822 l 451 589 l 560 514 l 639 206 l 419 221 l 400 461 l 326 488 l 246 199 l 108 153 m 318 381 l 338 146 l 510 133 l 490 200 l 410 203 l 386 449 q 338 465 368 454 l 318 381 m 200 886 l 147 878 l 32 89 l 128 119 l 133 150 l 96 140 l 200 886 z "},"L":{"ha":721,"x_min":-29,"x_max":761,"o":"m 413 -67 l 310 -199 l 156 -4 l 113 -221 l 17 -72 l -18 -94 l 117 -306 l 178 -83 l 304 -250 l 407 -147 q 493 -289 460 -217 l 750 -78 l 715 -54 l 526 -232 l 413 -67 m 281 1242 l 168 1438 l -29 1218 l 1 1190 l 157 1363 l 269 1174 l 383 1288 l 510 1185 l 583 1385 l 722 1206 l 761 1219 l 578 1454 l 486 1247 l 367 1363 l 281 1242 m 178 193 l 615 243 l 615 367 l 332 350 l 275 469 l 438 932 l 414 1049 l 240 1056 l 178 193 m 121 126 l 192 1115 l 457 1106 l 493 928 l 333 474 l 363 411 l 667 428 l 667 190 l 121 126 m 83 954 l 18 29 l 508 86 l 510 154 l 108 111 l 121 338 l 171 953 l 83 954 z "},"M":{"ha":722,"x_min":-26,"x_max":765,"o":"m -18 -94 l 17 -72 l 124 -211 l 300 78 l 392 -150 l 494 22 l 643 -178 l 717 -71 l 750 -94 l 632 -268 l 501 -65 l 394 -272 l 294 -18 l 124 -292 l -18 -94 m 4 1183 l -26 1211 l 217 1457 l 204 1249 l 350 1406 l 472 1178 l 518 1249 l 651 1463 l 765 1208 l 726 1194 l 651 1340 l 478 1092 l 401 1161 l 338 1313 l 158 1178 l 169 1347 l 4 1183 m 92 972 l 265 1021 l 388 717 l 446 1001 l 675 1032 l 708 261 l 526 203 l 521 633 l 467 514 l 344 465 l 271 626 l 301 240 l 113 199 l 92 972 m 135 942 l 153 250 l 257 274 l 211 856 l 365 519 l 435 547 l 560 822 l 567 260 l 665 290 l 635 985 l 481 964 l 400 574 l 240 971 l 135 942 m 385 739 l 361 793 l 374 861 l 413 868 l 385 739 m 183 199 l 190 136 l 43 104 l 24 836 l 79 854 l 92 179 l 183 199 m 392 478 l 361 410 l 300 386 l 286 563 l 339 457 l 392 478 m 521 192 l 594 218 l 597 154 l 457 110 l 453 492 l 475 507 l 515 601 l 521 192 z "},"N":{"ha":651,"x_min":-26,"x_max":692,"o":"m 17 -72 l -18 -94 l 117 -306 l 222 -71 l 322 -261 l 438 -7 l 558 -257 l 678 -83 l 643 -60 l 569 -167 l 431 81 l 318 -139 l 222 17 l 106 -211 l 17 -72 m 228 1126 l 326 1249 l 396 951 l 578 1351 l 653 1206 l 692 1219 l 579 1474 l 401 1068 l 344 1353 l 239 1213 l 181 1428 l -26 1211 l 4 1183 l 169 1358 l 228 1126 m 79 925 l 250 1089 l 396 596 l 467 1014 l 646 954 l 513 214 l 358 178 l 267 476 l 278 217 l 115 76 l 79 925 m 121 908 l 154 164 l 236 235 l 211 799 l 388 226 l 476 249 l 599 926 l 500 960 l 407 413 l 229 1011 l 121 908 m 107 63 l 65 28 l 31 824 l 71 871 l 93 122 l 107 63 m 431 178 l 425 138 l 303 110 l 282 382 l 339 158 l 431 178 m 392 650 l 382 688 l 414 893 l 436 882 l 392 650 z "},"O":{"ha":768,"x_min":-26,"x_max":817,"o":"m 250 -57 l 117 -306 l -18 -94 l 17 -72 l 113 -221 l 242 0 l 392 -117 l 507 -42 l 571 4 l 694 -178 l 768 -71 l 803 -94 l 683 -268 l 558 -71 l 414 -187 l 250 -57 m 454 1197 l 321 1056 l 160 1356 l 4 1183 l -26 1211 l 171 1431 l 321 1121 l 461 1283 l 513 1156 l 576 1167 l 704 1463 l 817 1208 l 778 1194 l 703 1340 l 600 1126 l 472 1103 l 454 1197 m 169 328 l 339 193 l 571 181 l 667 561 l 600 936 l 242 976 l 169 328 m 125 310 l 206 1024 l 636 975 l 710 560 l 603 138 l 324 151 l 125 310 m 304 418 l 421 342 l 501 465 l 501 699 l 481 786 l 375 776 l 304 418 m 257 397 l 340 815 l 514 832 l 543 703 l 543 453 l 433 283 l 257 397 m 318 138 l 107 292 l 174 861 l 101 872 l 25 190 l 210 44 l 464 32 l 492 132 l 318 138 m 458 761 l 482 690 l 479 469 l 414 369 l 400 574 l 381 746 l 458 761 z "},"P":{"ha":675,"x_min":-26,"x_max":714,"o":"m 113 -221 l 17 -72 l -18 -94 l 117 -306 l 251 -47 l 344 -271 l 456 72 l 581 -267 l 700 -93 l 665 -69 l 592 -176 l 453 199 l 340 -149 l 251 33 l 113 -221 m 160 1356 l 4 1183 l -26 1211 l 171 1431 l 257 1185 l 401 1340 l 478 1114 l 601 1464 l 714 1210 l 675 1196 l 600 1342 l 478 1004 l 367 1213 l 217 1103 l 160 1356 m 156 436 l 140 179 l 226 199 l 243 454 l 456 490 l 560 628 l 507 863 l 328 915 l 144 857 l 156 436 m 114 438 l 103 888 l 326 958 l 542 894 l 606 618 l 478 453 l 283 419 l 265 164 l 96 125 l 114 438 m 278 588 l 401 626 l 415 733 l 371 801 l 272 765 l 278 588 m 238 531 l 231 794 l 388 851 l 460 744 l 439 596 l 238 531 m 94 267 l 94 783 l 49 769 l 71 338 l 54 53 l 182 82 l 186 132 l 89 111 l 94 267 m 290 350 l 403 374 l 447 432 l 293 406 l 290 350 m 283 713 l 289 600 l 364 624 l 374 640 l 315 728 l 283 713 z "},"Q":{"ha":706,"x_min":-26,"x_max":753,"o":"m 496 69 l 392 -117 l 242 36 l 113 -221 l 17 -72 l -18 -94 l 117 -306 l 253 -35 l 407 -193 l 496 -44 l 611 -261 l 738 -108 l 704 -85 l 617 -185 l 496 69 m 525 1143 l 461 1283 l 318 1217 l 171 1431 l -26 1211 l 4 1183 l 160 1356 l 318 1160 l 454 1197 l 526 1035 l 629 1318 l 714 1181 l 753 1194 l 624 1446 l 525 1143 m 210 936 l 192 804 l 117 554 l 178 363 l 297 247 l 376 225 l 504 236 l 654 440 l 654 679 l 629 818 l 521 921 l 385 1032 l 210 936 m 171 963 l 390 1082 l 549 951 l 668 839 l 696 683 l 696 426 l 526 197 l 374 182 l 275 211 l 140 351 l 74 554 l 151 813 l 171 963 m 311 639 l 236 549 l 308 465 l 371 386 l 482 481 l 482 651 l 429 767 l 363 789 l 311 639 m 274 660 l 336 842 l 460 800 l 524 660 l 524 461 l 365 326 l 276 439 l 182 547 l 274 660 m 146 867 l 89 867 l 69 726 l -7 471 l 57 281 l 183 146 l 274 121 l 414 133 l 426 165 l 254 190 l 126 331 l 44 535 l 146 867 m 382 433 l 400 574 l 343 700 l 331 631 l 286 579 l 299 535 l 382 433 z "},"R":{"ha":640,"x_min":-26,"x_max":678,"o":"m 25 -96 l 60 -74 l 153 -222 l 158 -111 l 217 -7 l 304 -172 l 425 13 l 556 -201 l 629 -94 l 664 -118 l 544 -290 l 425 -42 l 308 -294 l 210 -89 l 175 -315 l 25 -96 m 4 1183 l -26 1211 l 171 1431 l 274 1207 l 332 1283 l 425 1114 l 565 1439 l 678 1185 l 639 1171 l 564 1317 l 425 1028 l 321 1190 l 257 1126 l 164 1335 l 4 1183 m 314 392 l 450 335 l 454 142 l 533 146 l 485 372 l 296 451 l 269 518 l 436 525 l 536 603 l 519 775 l 358 938 l 208 954 l 146 908 l 146 696 l 183 138 l 289 138 l 289 342 l 314 392 m 318 332 l 332 96 l 144 96 l 104 694 l 104 929 l 196 997 l 378 976 l 560 794 l 581 585 l 451 483 l 313 478 l 511 392 l 554 119 l 428 110 l 422 325 l 324 360 l 318 332 m 304 625 l 382 615 l 438 707 l 403 757 l 324 821 l 288 817 l 304 625 m 265 588 l 243 854 l 336 864 l 433 786 l 488 710 l 404 571 l 265 588 m 136 82 l 97 656 l 97 872 l 57 840 l 57 618 l 94 38 l 242 38 l 239 85 l 136 82 m 413 446 l 435 446 l 447 474 l 367 469 l 413 446 m 310 803 l 396 747 l 411 710 l 385 633 l 361 690 l 315 714 l 310 803 m 511 94 l 514 67 l 393 60 l 371 258 l 333 288 l 340 335 l 403 313 l 419 94 l 511 94 z "},"S":{"ha":713,"x_min":-26,"x_max":758,"o":"m 496 69 l 356 -121 l 229 -25 l 113 -221 l 17 -72 l -18 -94 l 117 -306 l 235 -76 l 375 -224 l 496 -12 l 585 -253 l 751 -83 l 717 -60 l 606 -167 l 496 69 m 521 1165 l 461 1283 l 286 1185 l 171 1431 l -26 1211 l 4 1183 l 160 1356 l 267 1114 l 454 1197 l 535 1064 l 622 1317 l 719 1210 l 758 1224 l 614 1474 l 521 1165 m 617 775 l 508 954 l 239 943 l 138 682 l 226 494 l 356 494 l 486 519 l 544 453 l 481 338 l 315 325 l 251 383 l 164 383 l 181 296 l 343 185 l 597 281 l 613 513 l 476 578 l 361 549 l 260 607 l 307 853 l 486 794 l 496 704 l 617 775 m 675 760 l 465 657 l 449 764 l 339 799 l 306 628 l 367 593 l 481 622 l 657 538 l 638 251 l 338 139 l 143 271 l 114 425 l 268 425 l 331 368 l 454 378 l 494 447 l 471 474 l 360 453 l 200 453 l 93 681 l 211 983 l 531 996 l 675 760 m 271 164 l 135 263 l 128 285 l 33 285 l 57 163 l 235 42 l 513 146 l 514 197 l 331 124 l 271 164 m 149 843 l 119 843 l 10 561 l 108 353 l 101 438 l 197 438 l 168 483 l 79 676 l 149 843 m 450 647 l 435 750 l 383 768 l 344 775 l 363 658 l 411 611 l 542 647 l 539 683 l 450 647 z "},"T":{"ha":801,"x_min":-26,"x_max":833,"o":"m 17 -72 l -18 -94 l 117 -306 l 279 -89 l 458 -257 l 572 0 l 696 -253 l 833 -83 l 799 -60 l 707 -162 l 579 76 l 456 -135 l 267 -12 l 114 -210 l 17 -72 m 4 1183 l -26 1211 l 171 1431 l 375 1121 l 547 1242 l 715 1478 l 829 1224 l 790 1210 l 715 1356 l 572 1172 l 356 1051 l 158 1344 l 4 1183 m 403 789 l 378 211 l 519 211 l 519 781 l 718 761 l 724 946 l 154 917 l 160 744 l 403 789 m 360 739 l 119 694 l 111 956 l 765 990 l 758 715 l 561 735 l 561 169 l 335 169 l 360 739 m 592 618 l 693 694 l 592 700 l 592 618 m 343 707 l 94 675 l 101 840 l 38 835 l 44 618 l 286 663 l 260 89 l 444 89 l 444 146 l 311 140 l 343 707 z "},"U":{"ha":704,"x_min":-26,"x_max":749,"o":"m 111 -222 l 17 -72 l -18 -94 l 117 -306 l 251 -71 l 385 -246 l 489 -7 l 615 -272 l 735 -99 l 700 -75 l 626 -182 l 483 74 l 375 -154 l 244 -7 l 111 -222 m 158 1353 l 4 1183 l -26 1211 l 171 1431 l 281 1172 l 390 1324 l 489 1092 l 636 1458 l 749 1204 l 710 1190 l 635 1336 l 483 1015 l 374 1213 l 268 1097 l 158 1353 m 158 264 l 315 219 l 539 243 l 586 468 l 586 881 l 453 900 l 494 514 l 446 357 l 306 263 l 247 386 l 313 697 l 325 915 l 224 1011 l 219 935 l 158 264 m 114 233 l 188 1104 l 367 932 l 354 692 l 292 392 l 322 325 l 411 383 l 451 518 l 406 949 l 628 917 l 628 464 l 574 204 l 313 176 l 114 233 m 407 804 l 371 811 l 390 400 l 429 521 l 407 804 m 97 221 l 164 900 l 110 956 l 104 835 l 40 147 l 218 96 l 461 122 l 467 183 l 279 161 l 97 221 z "},"V":{"ha":897,"x_min":-26,"x_max":946,"o":"m 113 -221 l 17 -72 l -18 -94 l 117 -306 l 253 -35 l 382 -182 l 475 -19 l 576 -272 l 688 69 l 813 -268 l 932 -94 l 897 -71 l 824 -178 l 685 196 l 572 -150 l 482 76 l 374 -112 l 251 24 l 113 -221 m 4 1183 l -26 1211 l 171 1431 l 286 1197 l 407 1421 l 483 1140 l 572 1325 l 675 1076 l 833 1463 l 946 1208 l 907 1194 l 832 1340 l 688 1025 l 572 1190 l 458 1038 l 372 1225 l 274 1082 l 158 1318 l 4 1183 m 429 218 l 510 208 l 796 847 l 704 911 l 482 369 l 349 750 l 360 907 l 185 1007 l 206 846 l 429 218 m 399 179 l 164 836 l 133 1083 l 404 929 l 390 756 l 485 486 l 685 975 l 847 861 l 535 163 l 399 179 m 69 732 l 299 89 l 407 76 l 458 133 l 388 153 l 356 236 l 146 790 l 126 879 l 44 936 l 69 732 z "},"W":{"ha":885,"x_min":-26,"x_max":925,"o":"m 117 -306 l -18 -94 l 17 -72 l 113 -221 l 242 36 l 365 -135 l 454 39 l 565 -126 l 681 92 l 817 -154 l 890 -47 l 925 -71 l 806 -244 l 681 22 l 569 -249 l 454 -31 l 374 -204 l 250 -22 l 117 -306 m -26 1211 l 4 1183 l 140 1353 l 282 1039 l 361 1190 l 464 1010 l 576 1283 l 651 1039 l 810 1365 l 885 1219 l 924 1233 l 811 1488 l 664 1138 l 588 1417 l 467 1110 l 361 1301 l 281 1146 l 147 1442 l -26 1211 m 250 290 l 350 253 l 429 575 l 575 251 l 678 251 l 764 789 l 719 911 l 601 911 l 586 400 l 494 675 l 388 728 l 326 563 l 281 872 l 142 925 l 150 851 l 250 290 m 213 260 l 108 846 l 92 989 l 321 901 l 336 668 l 356 790 l 528 704 l 551 635 l 561 953 l 749 953 l 807 793 l 714 210 l 549 210 l 440 447 l 379 197 l 213 260 m 108 811 l 44 835 l 57 726 l 160 153 l 293 101 l 318 208 l 197 254 l 108 811 m 501 824 l 543 682 l 547 840 l 501 824 m 411 283 l 490 108 l 624 108 l 636 201 l 542 201 l 443 406 l 411 283 z "},"X":{"ha":779,"x_min":-26,"x_max":829,"o":"m 250 -111 l 358 78 l 449 -150 l 558 57 l 700 -178 l 779 -76 l 808 -94 l 689 -268 l 558 -36 l 453 -272 l 351 -18 l 258 -182 l 117 -326 l -18 -94 l 17 -72 l 113 -221 l 250 -111 m 4 1183 l -26 1211 l 171 1431 l 254 1331 l 357 1082 l 411 1189 l 547 1114 l 715 1457 l 829 1203 l 789 1189 l 714 1335 l 576 1056 l 419 1113 l 353 981 l 254 1219 l 164 1353 l 4 1183 m 335 582 l 172 176 l 268 131 l 404 476 l 649 192 l 710 307 l 492 556 l 597 917 l 497 949 l 394 575 l 189 953 l 133 867 l 335 582 m 288 576 l 82 865 l 188 1010 l 382 686 l 469 1001 l 649 943 l 539 565 l 757 301 l 636 140 l 431 411 l 290 74 l 119 156 l 288 576 m 217 639 l 61 861 l 13 796 l 215 510 l 50 96 l 183 32 l 210 97 l 99 144 l 268 572 l 217 639 m 424 888 l 388 904 l 354 779 l 379 725 l 424 888 m 408 294 l 547 96 l 625 132 l 440 375 l 408 294 z "},"Y":{"ha":789,"x_min":-26,"x_max":829,"o":"m 17 -72 l -18 -94 l 117 -306 l 203 -140 l 356 -89 l 474 -281 l 599 -89 l 711 -276 l 829 -104 l 794 -81 l 722 -187 q 604 -7 688 -117 l 469 -158 l 356 -19 l 158 -115 l 114 -204 l 17 -72 m 247 1190 l 388 1281 l 444 1076 l 572 1217 l 675 1082 l 714 1344 l 789 1217 l 828 1231 l 726 1485 l 656 1197 l 585 1293 l 458 1185 l 407 1353 l 267 1254 l 189 1436 l -26 1211 l 4 1183 l 160 1356 l 247 1190 m 363 644 l 356 118 l 490 133 l 440 565 l 671 911 l 557 943 l 435 678 l 196 1019 l 119 900 l 363 644 m 321 629 l 67 896 l 194 1094 l 426 761 l 533 993 l 738 936 l 483 556 l 536 96 l 314 72 l 321 629 m 100 821 l 297 611 l 278 51 l 488 64 l 514 13 l 182 13 l 207 547 l 61 688 l 100 821 m 661 790 l 508 560 l 528 483 l 661 790 z "},"Z":{"ha":840,"x_min":-26,"x_max":885,"o":"m 490 96 l 392 -117 l 242 36 l 113 -221 l 17 -72 l -18 -94 l 117 -306 l 253 -35 l 407 -193 l 483 -7 l 597 -260 l 649 -19 l 765 -275 l 885 -101 l 850 -78 l 776 -186 l 643 101 l 579 -108 l 490 96 m 454 1197 l 326 1007 l 160 1356 l 4 1183 l -26 1211 l 171 1431 l 332 1090 l 461 1283 l 525 1143 l 767 1453 l 879 1199 l 840 1185 l 765 1331 l 535 1038 l 454 1197 m 707 976 l 808 757 l 467 522 l 750 517 l 774 319 l 131 250 l 144 508 l 508 735 l 194 724 l 124 936 l 707 976 m 681 933 l 181 899 l 224 767 l 663 782 l 185 485 l 174 297 l 728 356 l 713 476 l 335 483 l 757 771 l 681 933 m 126 847 l 190 700 l 394 700 l 171 560 l 126 847 m 121 414 l 121 222 l 668 281 l 681 210 l 44 133 l 44 401 l 121 414 m 540 542 l 719 663 l 713 574 l 540 542 z "},"[":{"ha":985,"x_min":44,"x_max":1007,"o":"m 982 1182 l 703 1347 l 828 1111 l 364 904 l 744 640 l 343 510 l 619 454 l 204 81 l 917 281 l 515 -267 l 979 -79 l 1001 -122 l 336 -411 l 772 183 l 44 -17 l 478 426 l 93 496 l 606 647 l 211 925 l 758 1139 l 550 1513 l 1007 1224 l 982 1182 z "},"]":{"ha":1347,"x_min":-24,"x_max":1222,"o":"m -4 1232 l 758 1547 l 190 849 l 619 911 l 315 558 l 1222 419 l 343 264 l 772 -31 l 317 -18 l 361 -372 l -24 -119 l 3 -79 l 300 -274 l 260 43 l 613 11 l 169 315 l 917 419 l 183 538 l 481 835 l 24 765 l 571 1417 l -4 1172 l -4 1232 z "},"^":{"ha":1092,"x_min":18,"x_max":1040,"o":"m 269 749 q 231 767 251 767 q 160 728 199 767 l 146 743 l 351 947 l 365 933 q 326 864 326 894 q 346 824 326 842 l 726 442 q 801 522 786 501 q 832 601 836 567 q 789 693 826 632 l 803 706 l 943 564 l 528 149 l 386 290 l 400 304 q 506 257 464 257 q 599 314 543 257 l 651 367 l 269 749 m 891 203 q 816 128 891 203 q 529 53 742 53 q 168 203 318 53 q 18 564 18 353 q 168 926 18 776 q 529 1075 318 1075 q 891 926 742 1075 q 1040 564 1040 776 q 891 203 1040 353 m 842 251 q 906 316 842 251 q 971 564 971 381 q 842 876 971 747 q 529 1006 713 1006 q 217 876 346 1006 q 88 564 88 747 q 217 251 88 381 q 529 122 346 122 q 842 251 713 122 z "},"a":{"ha":925,"x_min":-18,"x_max":942,"o":"m 360 -125 l 451 25 l 540 -172 l 649 -217 l 782 18 l 826 -178 l 900 -71 l 933 -94 l 815 -268 l 757 -115 l 675 -272 l 521 -217 l 439 -64 l 385 -221 l 292 -108 l 117 -306 l -18 -94 l 17 -72 l 113 -221 l 272 -58 l 360 -125 m 176 1354 l 21 1181 l -10 1208 l 186 1428 l 314 1199 l 440 1319 l 496 1349 l 599 1099 l 653 1207 l 753 1089 l 824 1465 l 942 1217 l 903 1203 l 846 1319 l 807 951 l 661 1131 l 594 999 l 483 1293 l 456 1264 l 299 1107 l 176 1354 m 614 169 l 785 174 l 638 917 l 393 903 l 201 188 l 308 165 l 344 461 l 536 467 l 614 169 m 576 119 l 499 417 l 376 413 l 338 119 l 144 146 l 357 944 l 678 968 l 843 126 l 576 119 m 507 843 l 540 533 l 363 517 l 507 843 m 488 721 l 419 568 l 506 574 l 488 721 m 382 350 l 382 403 l 492 407 l 568 111 l 732 117 l 744 71 l 508 68 l 436 346 l 382 350 m 317 842 l 124 138 l 243 117 l 297 111 l 267 60 l 39 92 l 276 890 l 339 890 l 317 842 z "},"b":{"ha":975,"x_min":-18,"x_max":1007,"o":"m 113 -221 l 17 -72 l -18 -94 l 117 -306 l 253 -35 l 349 -262 q 539 -14 425 -176 l 681 -168 l 813 44 l 889 -268 l 1007 -94 l 972 -71 l 924 -133 q 872 36 907 -94 q 822 172 844 146 l 675 -65 l 526 43 l 372 -176 l 250 31 l 113 -221 m 306 1446 l 432 1178 l 522 1364 l 629 1144 l 765 1424 q 829 1074 794 1282 l 917 1489 l 975 1240 l 975 1160 l 924 1264 q 874 1093 903 1213 q 829 951 846 985 l 740 1271 l 622 1081 l 524 1251 l 432 1094 l 308 1338 l 200 1061 l -1 1203 l 4 1254 l 172 1151 l 306 1446 m 208 249 l 667 176 l 858 340 l 778 482 l 386 594 l 768 619 l 764 760 l 704 942 l 314 942 l 208 249 m 147 225 l 267 1007 l 735 1007 l 807 785 l 813 592 l 660 582 l 804 540 l 914 347 l 676 142 l 147 225 m 431 718 l 599 726 l 578 844 l 451 836 l 431 718 m 372 667 l 410 882 l 618 896 l 656 681 l 372 667 m 389 344 l 525 300 l 565 394 l 418 461 l 389 344 m 331 313 l 385 531 l 629 418 l 551 239 l 331 313 m 175 954 l 56 172 l 583 89 l 635 133 l 135 214 l 251 950 l 175 957 l 175 954 z "},"c":{"ha":846,"x_min":-6,"x_max":872,"o":"m 603 -106 l 513 31 l 397 -175 q 346 -106 390 -169 q 254 36 293 -31 l 125 -221 l 29 -72 l -6 -94 l 129 -306 l 256 -53 l 404 -278 l 507 -46 l 608 -169 l 683 4 l 753 -272 l 872 -100 l 838 -76 l 764 -183 l 692 88 l 603 -106 m 807 1324 l 846 1203 l 872 1247 l 793 1474 l 603 1151 l 564 1247 l 461 1465 l 394 1163 l 331 1304 l 218 1132 l 103 1350 l 11 1260 l 11 1196 l 89 1279 l 196 1026 l 324 1218 l 397 1054 l 474 1324 l 596 965 l 807 1324 m 444 965 l 303 914 l 176 793 l 176 475 l 229 285 l 475 183 l 674 219 l 765 379 l 735 399 l 632 440 l 589 278 l 396 264 l 269 472 l 294 646 l 372 800 l 494 793 l 563 724 l 642 807 l 444 965 m 454 1019 l 714 813 l 564 654 l 472 746 l 401 750 l 342 631 l 321 483 l 422 315 l 550 324 l 599 506 l 758 443 l 831 394 l 704 176 l 469 133 l 189 249 l 128 469 l 128 814 l 276 957 l 454 1019 m 376 93 l 96 210 l 35 429 l 35 775 l 183 917 l 242 942 l 110 810 l 114 460 l 181 231 l 457 121 l 508 128 l 610 149 l 611 138 l 376 93 m 533 349 l 464 344 l 469 374 l 500 490 l 564 468 l 533 349 m 533 676 l 478 621 l 390 708 l 407 742 l 469 739 l 533 676 z "},"d":{"ha":783,"x_min":-18,"x_max":821,"o":"m 682 -168 l 756 -61 l 789 -85 l 671 -258 l 533 -35 l 400 -217 l 253 -35 l 139 -158 l -18 -94 l 17 -72 l 122 -112 l 242 36 l 400 -142 l 522 39 l 682 -168 m 729 1340 l 782 1190 l 821 1204 l 729 1463 l 558 1156 l 476 1374 l 336 1136 l 174 1357 l -12 1224 l 0 1168 l 163 1286 l 319 1032 l 476 1251 l 543 1033 l 729 1340 m 235 253 l 499 258 l 700 488 l 603 754 l 403 882 l 142 867 l 235 253 m 174 197 l 63 932 l 411 954 l 646 803 l 764 483 l 519 204 l 174 197 m 353 479 l 478 496 l 488 660 l 346 733 l 342 708 l 353 479 m 293 408 l 279 713 l 300 828 l 532 692 l 536 442 l 293 408 m 453 182 l 429 153 l 125 144 l 24 825 l 60 836 l 167 179 l 453 182 m 435 503 l 463 507 l 474 647 l 354 707 l 358 663 l 435 611 l 435 503 z "},"e":{"ha":685,"x_min":-18,"x_max":724,"o":"m 117 -306 l -18 -94 l 17 -72 l 113 -221 l 192 -49 l 288 -172 l 468 196 l 607 -178 l 681 -71 l 715 -94 l 596 -268 l 471 69 l 285 -257 l 208 -147 l 117 -306 m 331 1064 l 176 1354 l 21 1181 l -10 1208 l 186 1428 l 336 1147 l 478 1282 l 632 1460 l 724 1201 l 685 1188 l 632 1338 l 476 1188 l 331 1064 m 182 343 l 569 331 l 569 375 l 315 394 l 310 565 l 463 604 l 468 681 l 303 699 l 303 903 l 500 858 l 500 986 l 189 1004 l 182 343 m 139 307 l 144 1065 l 540 1025 l 540 807 l 342 863 l 346 732 l 496 726 l 510 585 l 360 540 l 360 440 l 628 428 l 628 300 l 139 307 m 47 938 l 40 210 l 501 203 l 496 281 l 122 283 l 122 458 l 125 935 l 47 938 m 367 757 l 424 757 l 431 814 l 367 833 l 367 757 z "},"f":{"ha":685,"x_min":-18,"x_max":724,"o":"m -18 -94 l 17 -72 l 113 -221 l 269 71 l 360 -156 l 472 190 l 613 -183 l 685 -76 l 719 -100 l 601 -274 l 475 64 l 364 -278 l 263 -25 l 128 -310 l -18 -94 m 463 1279 l 354 1003 l 176 1354 l 21 1181 l -10 1208 l 186 1428 l 349 1089 l 468 1372 l 540 1211 l 632 1460 l 724 1201 l 685 1188 l 632 1338 l 540 1113 l 463 1279 m 214 274 l 372 286 l 335 400 l 265 592 l 449 610 l 449 693 l 258 649 l 239 833 l 494 871 l 525 979 l 138 903 l 214 274 m 164 226 l 85 946 l 588 1028 l 550 840 l 286 790 l 296 703 l 474 742 l 497 572 l 321 560 l 360 413 l 475 249 l 164 226 m 308 778 l 306 739 l 463 769 l 468 807 l 308 778 m 343 549 l 360 500 l 404 501 l 397 549 l 343 549 m 146 201 l 68 858 l 24 851 l 100 158 l 372 178 l 360 221 l 146 201 z "},"g":{"ha":778,"x_min":-18,"x_max":824,"o":"m 499 -14 l 407 -193 l 243 -83 l 117 -306 l -18 -94 l 17 -72 l 113 -221 l 243 -25 l 392 -117 l 493 68 l 610 -171 l 778 -65 l 813 -89 l 601 -262 l 499 -14 m 469 1196 l 331 1072 l 176 1354 l 21 1181 l -10 1208 l 186 1428 l 336 1156 l 478 1282 l 540 1140 l 663 1467 l 824 1206 l 785 1192 l 661 1344 l 546 1038 l 469 1196 m 488 411 l 469 283 l 342 214 l 219 296 l 194 500 l 232 706 l 382 889 l 546 768 l 615 814 l 583 871 l 303 1011 l 118 688 l 138 232 l 399 150 l 494 197 l 529 286 l 529 410 l 715 440 l 660 564 l 342 489 l 353 393 l 450 404 l 488 411 m 283 1058 l 619 890 l 649 778 l 528 725 l 386 849 l 264 685 l 226 493 l 251 317 l 340 256 l 436 306 l 450 365 l 328 365 l 313 510 l 679 606 l 754 419 l 557 386 l 557 281 l 517 178 l 392 118 l 90 196 l 90 694 l 283 1058 m 343 771 l 454 665 l 557 710 l 550 726 l 524 714 l 389 832 l 343 771 m 438 357 l 321 357 l 314 439 l 251 424 l 267 317 l 390 303 l 428 319 l 438 357 m 567 338 l 658 353 l 644 393 l 568 379 l 567 338 m 394 100 l 79 188 l 79 689 l 224 957 l 213 964 l 28 614 l 28 131 l 314 47 l 431 99 l 432 122 l 394 100 z "},"h":{"ha":746,"x_min":-18,"x_max":783,"o":"m 113 -221 l 17 -72 l -18 -94 l 117 -306 l 236 -119 l 419 -279 l 499 -75 l 654 -257 l 775 -101 l 740 -78 l 667 -185 l 479 -3 l 408 -172 l 239 -62 l 113 -221 m 176 1354 l 21 1181 l -10 1208 l 186 1428 l 343 1125 l 388 1186 l 557 1074 l 693 1453 l 783 1194 l 744 1181 l 681 1319 l 571 997 l 396 1110 l 343 1035 l 176 1354 m 122 197 l 253 133 l 258 386 l 492 406 l 569 126 l 635 114 l 525 897 l 479 904 l 440 476 l 253 444 l 324 878 l 246 936 l 272 858 l 122 197 m 90 165 l 226 869 l 181 1015 l 364 896 l 296 494 l 399 514 l 438 942 l 550 950 l 676 75 l 535 75 l 471 360 l 304 349 l 292 54 l 90 165 m 426 867 l 386 865 l 354 514 l 392 521 l 426 867 m 529 68 l 464 350 l 314 342 l 314 304 l 418 311 l 482 25 l 596 25 l 588 68 l 529 68 m 204 867 l 169 943 l 86 968 l 138 835 l 17 106 l 215 13 l 218 79 l 69 146 l 204 867 z "},"i":{"ha":813,"x_min":-18,"x_max":847,"o":"m 847 -89 l 814 -65 l 711 -178 l 476 71 l 368 -118 l 242 36 l 113 -221 l 17 -72 l -18 -94 l 117 -306 l 251 -51 l 376 -189 l 469 -26 l 703 -269 l 847 -89 m 406 1225 l 322 1014 l 181 1322 l 21 1181 l -10 1208 l 186 1428 l 319 1122 l 406 1336 l 557 1118 l 733 1467 l 847 1206 l 808 1192 l 732 1344 l 564 1043 l 406 1225 m 188 768 l 268 751 l 379 743 l 369 521 l 328 271 l 131 258 l 126 193 l 143 124 l 406 214 l 628 232 l 583 354 l 411 322 l 514 756 l 743 731 l 754 965 l 219 915 l 188 768 m 135 732 l 178 949 l 783 994 l 775 690 l 531 717 l 501 582 l 450 369 l 599 404 l 688 206 l 408 171 l 107 76 l 100 189 l 69 294 l 293 294 l 342 524 l 342 708 l 264 724 l 135 732 m 563 701 l 529 643 l 692 624 l 700 689 l 676 689 l 563 701 m 18 197 l 43 108 l 50 13 l 336 101 l 597 133 l 575 183 l 411 157 l 96 65 l 83 197 l 18 197 m 286 308 l 332 529 l 329 697 l 261 713 l 124 714 l 150 854 l 119 853 l 82 661 l 196 656 l 285 636 l 285 439 l 257 308 l 286 308 z "},"j":{"ha":846,"x_min":-18,"x_max":890,"o":"m 17 -72 l -18 -94 l 117 -306 l 226 -106 l 322 -208 l 465 -279 l 578 -49 l 701 -275 l 878 -93 l 843 -69 l 713 -185 l 583 47 l 460 -218 l 322 -144 l 207 -22 l 124 -221 l 17 -72 m 21 1181 l -10 1208 l 186 1428 l 315 1132 l 433 1186 l 583 1094 l 738 1454 l 890 1196 l 851 1182 l 738 1332 l 590 1038 l 442 1110 l 283 1063 l 182 1324 l 21 1181 m 233 829 l 511 851 l 449 382 l 407 217 l 332 217 l 292 407 l 140 338 l 251 142 l 511 135 l 561 344 l 564 635 l 558 835 l 760 835 l 731 972 l 442 963 l 199 974 l 233 829 m 197 789 l 131 1011 l 432 997 l 771 1025 l 813 796 l 718 796 l 610 800 l 610 338 l 546 93 l 226 107 l 71 357 l 308 472 l 356 254 l 374 253 l 401 390 l 456 800 l 197 789 m 32 247 l 165 31 l 453 17 l 469 78 l 215 96 l 108 282 l 32 247 m 154 882 l 89 885 l 140 713 l 408 726 l 356 315 l 369 276 l 439 781 l 183 775 l 154 882 m 622 721 l 708 719 l 696 790 l 619 786 l 622 721 z "},"k":{"ha":685,"x_min":-18,"x_max":725,"o":"m 160 -107 l 267 82 l 357 -146 l 469 74 l 608 -174 l 682 -67 l 717 -90 l 597 -264 l 469 -7 l 361 -268 l 260 -14 l 167 -178 l 110 -292 l -18 -94 l 17 -72 l 99 -211 l 160 -107 m 21 1181 l -10 1208 l 186 1428 l 285 1153 l 360 1286 l 476 1118 l 635 1465 l 725 1207 l 686 1193 l 633 1343 l 482 1067 l 349 1182 l 272 1067 l 168 1328 l 21 1181 m 160 214 l 213 232 l 297 542 l 440 492 l 458 261 l 583 251 l 522 489 l 389 581 l 600 831 l 565 940 l 317 613 l 393 978 l 267 954 l 160 214 m 108 153 l 231 990 l 447 1031 l 396 786 l 581 1031 l 647 822 l 451 589 l 560 514 l 639 206 l 419 221 l 400 461 l 326 488 l 246 199 l 108 153 m 318 381 l 338 146 l 510 133 l 490 200 l 410 203 l 386 449 q 338 465 368 454 l 318 381 m 200 886 l 147 878 l 32 89 l 128 119 l 133 150 l 96 140 l 200 886 z "},"l":{"ha":708,"x_min":-29,"x_max":761,"o":"m 413 -67 l 310 -199 l 156 -4 l 113 -221 l 17 -72 l -18 -94 l 117 -306 l 178 -83 l 304 -250 l 407 -147 q 493 -289 460 -217 l 750 -78 l 715 -54 l 526 -232 l 413 -67 m 281 1242 l 168 1438 l -29 1218 l 1 1190 l 157 1363 l 269 1174 l 383 1288 l 510 1185 l 583 1385 l 722 1206 l 761 1219 l 578 1454 l 486 1247 l 367 1363 l 281 1242 m 178 193 l 615 243 l 615 367 l 332 350 l 275 469 l 438 932 l 414 1049 l 240 1056 l 178 193 m 121 126 l 192 1115 l 457 1106 l 493 928 l 333 474 l 363 411 l 667 428 l 667 190 l 121 126 m 83 954 l 18 29 l 508 86 l 510 154 l 108 111 l 121 338 l 171 953 l 83 954 z "},"m":{"ha":732,"x_min":-26,"x_max":765,"o":"m -18 -94 l 17 -72 l 124 -211 l 300 78 l 392 -150 l 494 22 l 643 -178 l 717 -71 l 750 -94 l 632 -268 l 501 -65 l 394 -272 l 294 -18 l 124 -292 l -18 -94 m 4 1183 l -26 1211 l 217 1457 l 204 1249 l 350 1406 l 472 1178 l 518 1249 l 651 1463 l 765 1208 l 726 1194 l 651 1340 l 478 1092 l 401 1161 l 338 1313 l 158 1178 l 169 1347 l 4 1183 m 92 972 l 265 1021 l 388 717 l 446 1001 l 675 1032 l 708 261 l 526 203 l 521 633 l 467 514 l 344 465 l 271 626 l 301 240 l 113 199 l 92 972 m 135 942 l 153 250 l 257 274 l 211 856 l 365 519 l 435 547 l 560 822 l 567 260 l 665 290 l 635 985 l 481 964 l 400 574 l 240 971 l 135 942 m 385 739 l 361 793 l 374 861 l 413 868 l 385 739 m 183 199 l 190 136 l 43 104 l 24 836 l 79 854 l 92 179 l 183 199 m 392 478 l 361 410 l 300 386 l 286 563 l 339 457 l 392 478 m 521 192 l 594 218 l 597 154 l 457 110 l 453 492 l 475 507 l 515 601 l 521 192 z "},"n":{"ha":668,"x_min":-18,"x_max":1410,"o":"m 17 -72 l -18 -94 l 117 -306 l 222 -71 l 322 -261 l 438 -7 l 558 -257 l 678 -83 l 643 -60 l 569 -167 l 431 81 l 318 -139 l 222 17 l 106 -211 l 17 -72 m 228 1126 l 326 1249 l 396 951 l 578 1351 l 653 1206 l 692 1219 l 579 1474 l 401 1068 l 344 1353 l 239 1213 l 181 1428 l -26 1211 l 4 1183 l 169 1358 l 228 1126 m 79 925 l 250 1089 l 396 596 l 467 1014 l 646 954 l 513 214 l 358 178 l 267 476 l 278 217 l 115 76 l 79 925 m 121 908 l 154 164 l 236 235 l 211 799 l 388 226 l 476 249 l 599 926 l 500 960 l 407 413 l 229 1011 l 121 908 m 107 63 l 65 28 l 31 824 l 71 871 l 93 122 l 107 63 m 431 178 l 425 138 l 303 110 l 282 382 l 339 158 l 431 178 m 392 650 l 382 688 l 414 893 l 436 882 l 392 650 z "},"o":{"ha":789,"x_min":-26,"x_max":817,"o":"m 250 -57 l 117 -306 l -18 -94 l 17 -72 l 113 -221 l 242 0 l 392 -117 l 507 -42 l 571 4 l 694 -178 l 768 -71 l 803 -94 l 683 -268 l 558 -71 l 414 -187 l 250 -57 m 454 1197 l 321 1056 l 160 1356 l 4 1183 l -26 1211 l 171 1431 l 321 1121 l 461 1283 l 513 1156 l 576 1167 l 704 1463 l 817 1208 l 778 1194 l 703 1340 l 600 1126 l 472 1103 l 454 1197 m 169 328 l 339 193 l 571 181 l 667 561 l 600 936 l 242 976 l 169 328 m 125 310 l 206 1024 l 636 975 l 710 560 l 603 138 l 324 151 l 125 310 m 304 418 l 421 342 l 501 465 l 501 699 l 481 786 l 375 776 l 304 418 m 257 397 l 340 815 l 514 832 l 543 703 l 543 453 l 433 283 l 257 397 m 318 138 l 107 292 l 174 861 l 101 872 l 25 190 l 210 44 l 464 32 l 492 132 l 318 138 m 458 761 l 482 690 l 479 469 l 414 369 l 400 574 l 381 746 l 458 761 z "},"p":{"ha":669,"x_min":-18,"x_max":1410,"o":"m 113 -221 l 17 -72 l -18 -94 l 117 -306 l 251 -47 l 344 -271 l 456 72 l 581 -267 l 700 -93 l 665 -69 l 592 -176 l 453 199 l 340 -149 l 251 33 l 113 -221 m 160 1356 l 4 1183 l -26 1211 l 171 1431 l 257 1185 l 401 1340 l 478 1114 l 601 1464 l 714 1210 l 675 1196 l 600 1342 l 478 1004 l 367 1213 l 217 1103 l 160 1356 m 156 436 l 140 179 l 226 199 l 243 454 l 456 490 l 560 628 l 507 863 l 328 915 l 144 857 l 156 436 m 114 438 l 103 888 l 326 958 l 542 894 l 606 618 l 478 453 l 283 419 l 265 164 l 96 125 l 114 438 m 278 588 l 401 626 l 415 733 l 371 801 l 272 765 l 278 588 m 238 531 l 231 794 l 388 851 l 460 744 l 439 596 l 238 531 m 94 267 l 94 783 l 49 769 l 71 338 l 54 53 l 182 82 l 186 132 l 89 111 l 94 267 m 290 350 l 403 374 l 447 432 l 293 406 l 290 350 m 283 713 l 289 600 l 364 624 l 374 640 l 315 728 l 283 713 z "},"q":{"ha":739,"x_min":-18,"x_max":1410,"o":"m 496 69 l 392 -117 l 242 36 l 113 -221 l 17 -72 l -18 -94 l 117 -306 l 253 -35 l 407 -193 l 496 -44 l 611 -261 l 738 -108 l 704 -85 l 617 -185 l 496 69 m 525 1143 l 461 1283 l 318 1217 l 171 1431 l -26 1211 l 4 1183 l 160 1356 l 318 1160 l 454 1197 l 526 1035 l 629 1318 l 714 1181 l 753 1194 l 624 1446 l 525 1143 m 210 936 l 192 804 l 117 554 l 178 363 l 297 247 l 376 225 l 504 236 l 654 440 l 654 679 l 629 818 l 521 921 l 385 1032 l 210 936 m 171 963 l 390 1082 l 549 951 l 668 839 l 696 683 l 696 426 l 526 197 l 374 182 l 275 211 l 140 351 l 74 554 l 151 813 l 171 963 m 311 639 l 236 549 l 308 465 l 371 386 l 482 481 l 482 651 l 429 767 l 363 789 l 311 639 m 274 660 l 336 842 l 460 800 l 524 660 l 524 461 l 365 326 l 276 439 l 182 547 l 274 660 m 146 867 l 89 867 l 69 726 l -7 471 l 57 281 l 183 146 l 274 121 l 414 133 l 426 165 l 254 190 l 126 331 l 44 535 l 146 867 m 382 433 l 400 574 l 343 700 l 331 631 l 286 579 l 299 535 l 382 433 z "},"r":{"ha":635,"x_min":-18,"x_max":1410,"o":"m 25 -96 l 60 -74 l 153 -222 l 158 -111 l 217 -7 l 304 -172 l 425 13 l 556 -201 l 629 -94 l 664 -118 l 544 -290 l 425 -42 l 308 -294 l 210 -89 l 175 -315 l 25 -96 m 4 1183 l -26 1211 l 171 1431 l 274 1207 l 332 1283 l 425 1114 l 565 1439 l 678 1185 l 639 1171 l 564 1317 l 425 1028 l 321 1190 l 257 1126 l 164 1335 l 4 1183 m 314 392 l 450 335 l 454 142 l 533 146 l 485 372 l 296 451 l 269 518 l 436 525 l 536 603 l 519 775 l 358 938 l 208 954 l 146 908 l 146 696 l 183 138 l 289 138 l 289 342 l 314 392 m 318 332 l 332 96 l 144 96 l 104 694 l 104 929 l 196 997 l 378 976 l 560 794 l 581 585 l 451 483 l 313 478 l 511 392 l 554 119 l 428 110 l 422 325 l 324 360 l 318 332 m 304 625 l 382 615 l 438 707 l 403 757 l 324 821 l 288 817 l 304 625 m 265 588 l 243 854 l 336 864 l 433 786 l 488 710 l 404 571 l 265 588 m 136 82 l 97 656 l 97 872 l 57 840 l 57 618 l 94 38 l 242 38 l 239 85 l 136 82 m 413 446 l 435 446 l 447 474 l 367 469 l 413 446 m 310 803 l 396 747 l 411 710 l 385 633 l 361 690 l 315 714 l 310 803 m 511 94 l 514 67 l 393 60 l 371 258 l 333 288 l 340 335 l 403 313 l 419 94 l 511 94 z "},"s":{"ha":710,"x_min":-18,"x_max":1410,"o":"m 496 69 l 356 -121 l 229 -25 l 113 -221 l 17 -72 l -18 -94 l 117 -306 l 235 -76 l 375 -224 l 496 -12 l 585 -253 l 751 -83 l 717 -60 l 606 -167 l 496 69 m 521 1165 l 461 1283 l 286 1185 l 171 1431 l -26 1211 l 4 1183 l 160 1356 l 267 1114 l 454 1197 l 535 1064 l 622 1317 l 719 1210 l 758 1224 l 614 1474 l 521 1165 m 617 775 l 508 954 l 239 943 l 138 682 l 226 494 l 356 494 l 486 519 l 544 453 l 481 338 l 315 325 l 251 383 l 164 383 l 181 296 l 343 185 l 597 281 l 613 513 l 476 578 l 361 549 l 260 607 l 307 853 l 486 794 l 496 704 l 617 775 m 675 760 l 465 657 l 449 764 l 339 799 l 306 628 l 367 593 l 481 622 l 657 538 l 638 251 l 338 139 l 143 271 l 114 425 l 268 425 l 331 368 l 454 378 l 494 447 l 471 474 l 360 453 l 200 453 l 93 681 l 211 983 l 531 996 l 675 760 m 271 164 l 135 263 l 128 285 l 33 285 l 57 163 l 235 42 l 513 146 l 514 197 l 331 124 l 271 164 m 149 843 l 119 843 l 10 561 l 108 353 l 101 438 l 197 438 l 168 483 l 79 676 l 149 843 m 450 647 l 435 750 l 383 768 l 344 775 l 363 658 l 411 611 l 542 647 l 539 683 l 450 647 z "},"t":{"ha":824,"x_min":-4,"x_max":856,"o":"m 39 -72 l 4 -94 l 139 -306 l 301 -89 l 481 -257 l 594 0 l 718 -253 l 856 -83 l 821 -60 l 729 -162 l 601 76 l 478 -135 l 289 -12 l 136 -210 l 39 -72 m 26 1183 l -4 1211 l 193 1431 l 397 1121 l 569 1242 l 738 1478 l 851 1224 l 813 1210 l 738 1356 l 594 1172 l 378 1051 l 181 1344 l 26 1183 m 425 789 l 400 211 l 542 211 l 542 781 l 740 761 l 746 946 l 176 917 l 182 744 l 425 789 m 382 739 l 142 694 l 133 956 l 788 990 l 781 715 l 583 735 l 583 169 l 357 169 l 382 739 m 614 618 l 715 694 l 614 700 l 614 618 m 365 707 l 117 675 l 124 840 l 60 835 l 67 618 l 308 663 l 282 89 l 467 89 l 467 146 l 333 140 l 365 707 z "},"u":{"ha":704,"x_min":-18,"x_max":1410,"o":"m 111 -222 l 17 -72 l -18 -94 l 117 -306 l 251 -71 l 385 -246 l 489 -7 l 615 -272 l 735 -99 l 700 -75 l 626 -182 l 483 74 l 375 -154 l 244 -7 l 111 -222 m 158 1353 l 4 1183 l -26 1211 l 171 1431 l 281 1172 l 390 1324 l 489 1092 l 636 1458 l 749 1204 l 710 1190 l 635 1336 l 483 1015 l 374 1213 l 268 1097 l 158 1353 m 158 264 l 315 219 l 539 243 l 586 468 l 586 881 l 453 900 l 494 514 l 446 357 l 306 263 l 247 386 l 313 697 l 325 915 l 224 1011 l 219 935 l 158 264 m 114 233 l 188 1104 l 367 932 l 354 692 l 292 392 l 322 325 l 411 383 l 451 518 l 406 949 l 628 917 l 628 464 l 574 204 l 313 176 l 114 233 m 407 804 l 371 811 l 390 400 l 429 521 l 407 804 m 97 221 l 164 900 l 110 956 l 104 835 l 40 147 l 218 96 l 461 122 l 467 183 l 279 161 l 97 221 z "},"v":{"ha":904,"x_min":-18,"x_max":1410,"o":"m 113 -221 l 17 -72 l -18 -94 l 117 -306 l 253 -35 l 382 -182 l 475 -19 l 576 -272 l 688 69 l 813 -268 l 932 -94 l 897 -71 l 824 -178 l 685 196 l 572 -150 l 482 76 l 374 -112 l 251 24 l 113 -221 m 4 1183 l -26 1211 l 171 1431 l 286 1197 l 407 1421 l 483 1140 l 572 1325 l 675 1076 l 833 1463 l 946 1208 l 907 1194 l 832 1340 l 688 1025 l 572 1190 l 458 1038 l 372 1225 l 274 1082 l 158 1318 l 4 1183 m 429 218 l 510 208 l 796 847 l 704 911 l 482 369 l 349 750 l 360 907 l 185 1007 l 206 846 l 429 218 m 399 179 l 164 836 l 133 1083 l 404 929 l 390 756 l 485 486 l 685 975 l 847 861 l 535 163 l 399 179 m 69 732 l 299 89 l 407 76 l 458 133 l 388 153 l 356 236 l 146 790 l 126 879 l 44 936 l 69 732 z "},"w":{"ha":910,"x_min":-4,"x_max":947,"o":"m 139 -306 l 4 -94 l 39 -72 l 135 -221 l 264 36 l 388 -135 l 476 39 l 588 -126 l 703 92 l 839 -154 l 913 -47 l 947 -71 l 828 -244 l 703 22 l 592 -249 l 476 -31 l 396 -204 l 272 -22 l 139 -306 m -4 1211 l 26 1183 l 163 1353 l 304 1039 l 383 1190 l 486 1010 l 599 1283 l 674 1039 l 832 1365 l 907 1219 l 946 1233 l 833 1488 l 686 1138 l 610 1417 l 489 1110 l 383 1301 l 303 1146 l 169 1442 l -4 1211 m 272 290 l 372 253 l 451 575 l 597 251 l 700 251 l 786 789 l 742 911 l 624 911 l 608 400 l 517 675 l 410 728 l 349 563 l 303 872 l 164 925 l 172 851 l 272 290 m 235 260 l 131 846 l 114 989 l 343 901 l 358 668 l 378 790 l 550 704 l 574 635 l 583 953 l 771 953 l 829 793 l 736 210 l 571 210 l 463 447 l 401 197 l 235 260 m 131 811 l 67 835 l 79 726 l 182 153 l 315 101 l 340 208 l 219 254 l 131 811 m 524 824 l 565 682 l 569 840 l 524 824 m 433 283 l 513 108 l 646 108 l 658 201 l 564 201 l 465 406 l 433 283 z "},"x":{"ha":783,"x_min":-18,"x_max":1410,"o":"m 250 -111 l 358 78 l 449 -150 l 558 57 l 700 -178 l 779 -76 l 808 -94 l 689 -268 l 558 -36 l 453 -272 l 351 -18 l 258 -182 l 117 -326 l -18 -94 l 17 -72 l 113 -221 l 250 -111 m 4 1183 l -26 1211 l 171 1431 l 254 1331 l 357 1082 l 411 1189 l 547 1114 l 715 1457 l 829 1203 l 789 1189 l 714 1335 l 576 1056 l 419 1113 l 353 981 l 254 1219 l 164 1353 l 4 1183 m 335 582 l 172 176 l 268 131 l 404 476 l 649 192 l 710 307 l 492 556 l 597 917 l 497 949 l 394 575 l 189 953 l 133 867 l 335 582 m 288 576 l 82 865 l 188 1010 l 382 686 l 469 1001 l 649 943 l 539 565 l 757 301 l 636 140 l 431 411 l 290 74 l 119 156 l 288 576 m 217 639 l 61 861 l 13 796 l 215 510 l 50 96 l 183 32 l 210 97 l 99 144 l 268 572 l 217 639 m 424 888 l 388 904 l 354 779 l 379 725 l 424 888 m 408 294 l 547 96 l 625 132 l 440 375 l 408 294 z "},"y":{"ha":790,"x_min":-18,"x_max":1410,"o":"m 17 -72 l -18 -94 l 117 -306 l 203 -140 l 356 -89 l 474 -281 l 599 -89 l 711 -276 l 829 -104 l 794 -81 l 722 -187 q 604 -7 688 -117 l 469 -158 l 356 -19 l 158 -115 l 114 -204 l 17 -72 m 247 1190 l 388 1281 l 444 1076 l 572 1217 l 675 1082 l 714 1344 l 789 1217 l 828 1231 l 726 1485 l 656 1197 l 585 1293 l 458 1185 l 407 1353 l 267 1254 l 189 1436 l -26 1211 l 4 1183 l 160 1356 l 247 1190 m 363 644 l 356 118 l 490 133 l 440 565 l 671 911 l 557 943 l 435 678 l 196 1019 l 119 900 l 363 644 m 321 629 l 67 896 l 194 1094 l 426 761 l 533 993 l 738 936 l 483 556 l 536 96 l 314 72 l 321 629 m 100 821 l 297 611 l 278 51 l 488 64 l 514 13 l 182 13 l 207 547 l 61 688 l 100 821 m 661 790 l 508 560 l 528 483 l 661 790 z "},"z":{"ha":869,"x_min":-4,"x_max":907,"o":"m 513 96 l 414 -117 l 264 36 l 135 -221 l 39 -72 l 4 -94 l 139 -306 l 275 -35 l 429 -193 l 506 -7 l 619 -260 l 671 -19 l 788 -275 l 907 -101 l 872 -78 l 799 -186 l 665 101 l 601 -108 l 513 96 m 476 1197 l 349 1007 l 182 1356 l 26 1183 l -4 1211 l 193 1431 l 354 1090 l 483 1283 l 547 1143 l 789 1453 l 901 1199 l 863 1185 l 788 1331 l 557 1038 l 476 1197 m 729 976 l 831 757 l 489 522 l 772 517 l 796 319 l 153 250 l 167 508 l 531 735 l 217 724 l 146 936 l 729 976 m 703 933 l 203 899 l 246 767 l 685 782 l 207 485 l 196 297 l 750 356 l 735 476 l 357 483 l 779 771 l 703 933 m 149 847 l 213 700 l 417 700 l 193 560 l 149 847 m 143 414 l 143 222 l 690 281 l 703 210 l 67 133 l 67 401 l 143 414 m 563 542 l 742 663 l 735 574 l 563 542 z "},"{":{"ha":1096,"x_min":21,"x_max":1075,"o":"m 1075 533 q 921 157 1075 313 q 549 1 767 1 q 176 157 331 1 q 21 533 21 313 q 176 910 21 754 q 549 1067 331 1067 q 921 910 767 1067 q 1075 533 1075 754 m 981 456 q 956 517 981 468 q 908 571 928 571 q 785 549 900 571 l 785 576 q 794 612 785 585 q 803 650 803 639 q 809 725 803 671 q 815 785 815 779 q 699 864 815 810 q 560 933 568 926 l 189 651 l 175 347 q 194 307 175 324 q 310 233 238 282 q 407 139 378 179 l 432 139 q 606 301 490 197 q 775 454 722 404 q 783 479 779 460 q 792 503 786 499 q 835 528 821 525 q 868 526 831 526 q 950 440 950 526 q 916 345 950 406 q 858 279 882 285 q 842 321 850 301 q 797 340 835 340 q 717 308 761 340 q 632 243 674 276 q 581 200 599 243 q 592 192 592 199 q 579 172 592 186 q 563 156 563 156 q 586 163 575 151 q 603 174 597 174 q 617 164 601 168 q 601 139 604 150 q 607 138 604 138 q 633 159 611 138 q 682 188 656 181 q 688 196 688 188 q 669 246 688 204 q 786 318 744 318 q 821 301 811 318 q 847 258 843 263 q 938 338 890 260 q 981 456 981 410 m 667 747 q 451 543 596 675 q 525 632 465 567 q 574 708 571 682 q 657 772 622 761 q 667 747 657 756 m 599 821 q 340 624 436 703 q 347 650 340 646 q 582 847 422 714 q 599 821 582 839 m 771 778 q 603 603 718 710 q 415 429 510 517 l 217 646 q 353 751 232 667 q 472 833 468 833 q 479 829 479 833 q 478 825 479 828 q 476 821 476 822 q 483 818 476 818 q 521 849 492 818 q 576 901 561 890 l 607 881 q 271 635 418 756 q 326 594 294 594 q 335 589 336 594 q 333 579 331 582 q 669 840 499 746 q 689 821 678 838 q 711 790 708 793 q 694 797 708 790 q 669 803 679 803 q 551 708 658 803 q 375 551 382 558 q 407 516 386 532 q 444 504 428 500 q 585 650 514 576 q 751 788 685 754 q 771 778 764 778 m 711 586 q 696 525 711 578 q 675 447 679 465 q 629 385 671 424 q 571 326 576 336 q 535 261 561 301 q 422 161 508 232 q 417 260 422 192 q 413 332 413 328 q 414 410 413 386 q 694 615 614 607 q 703 605 694 613 q 711 586 711 597 m 674 203 l 654 183 q 636 188 649 189 q 617 175 622 186 q 622 188 617 178 q 626 204 626 197 q 625 213 626 208 q 599 217 614 203 q 674 203 621 231 m 404 176 q 204 338 203 319 l 204 631 q 308 525 256 578 q 394 385 396 428 l 404 176 m 331 378 q 310 392 324 386 q 297 401 297 399 q 301 439 297 411 q 304 478 304 467 q 292 485 303 476 q 288 408 292 453 q 226 397 246 407 q 233 340 238 353 q 289 319 253 346 q 329 342 307 331 l 331 378 m 299 386 q 288 379 299 388 q 272 383 285 379 q 256 388 260 388 q 274 396 274 389 q 286 391 274 394 q 299 386 299 388 m 318 371 q 290 361 308 369 l 290 333 l 286 333 l 285 358 q 240 376 272 365 l 243 382 q 286 365 268 376 q 317 375 303 374 l 318 371 z "},"|":{"ha":1096,"x_min":21,"x_max":1075,"o":"m 1075 533 q 921 157 1075 313 q 549 1 767 1 q 176 157 331 1 q 21 533 21 313 q 176 910 21 754 q 549 1067 331 1067 q 921 910 767 1067 q 1075 533 1075 754 m 981 456 q 956 517 981 468 q 908 571 928 571 q 785 549 900 571 l 785 576 q 794 612 785 585 q 803 650 803 639 q 809 725 803 671 q 815 785 815 779 q 699 864 815 810 q 560 933 568 926 l 189 651 l 175 347 q 194 307 175 324 q 310 233 238 282 q 407 139 378 179 l 432 139 q 606 301 490 197 q 775 454 722 404 q 783 479 779 460 q 792 503 786 499 q 835 528 821 525 q 868 526 831 526 q 950 440 950 526 q 916 345 950 406 q 858 279 882 285 q 842 321 850 301 q 797 340 835 340 q 717 308 761 340 q 632 243 674 276 q 581 200 599 243 q 592 192 592 199 q 579 172 592 186 q 563 156 563 156 q 586 163 575 151 q 603 174 597 174 q 617 164 601 168 q 601 139 604 150 q 607 138 604 138 q 633 159 611 138 q 682 188 656 181 q 688 196 688 188 q 669 246 688 204 q 786 318 744 318 q 821 301 811 318 q 847 258 843 263 q 938 338 890 260 q 981 456 981 410 m 667 747 q 451 543 596 675 q 525 632 465 567 q 574 708 571 682 q 657 772 622 761 q 667 747 657 756 m 599 821 q 340 624 436 703 q 347 650 340 646 q 582 847 422 714 q 599 821 582 839 m 771 778 q 603 603 718 710 q 415 429 510 517 l 217 646 q 353 751 232 667 q 472 833 468 833 q 479 829 479 833 q 478 825 479 828 q 476 821 476 822 q 483 818 476 818 q 521 849 492 818 q 576 901 561 890 l 607 881 q 271 635 418 756 q 326 594 294 594 q 335 589 336 594 q 333 579 331 582 q 669 840 499 746 q 689 821 678 838 q 711 790 708 793 q 694 797 708 790 q 669 803 679 803 q 551 708 658 803 q 375 551 382 558 q 407 516 386 532 q 444 504 428 500 q 585 650 514 576 q 751 788 685 754 q 771 778 764 778 m 711 586 q 696 525 711 578 q 675 447 679 465 q 629 385 671 424 q 571 326 576 336 q 535 261 561 301 q 422 161 508 232 q 417 260 422 192 q 413 332 413 328 q 414 410 413 386 q 694 615 614 607 q 703 605 694 613 q 711 586 711 597 m 674 203 l 654 183 q 636 188 649 189 q 617 175 622 186 q 622 188 617 178 q 626 204 626 197 q 625 213 626 208 q 599 217 614 203 q 674 203 621 231 m 404 176 q 204 338 203 319 l 204 631 q 308 525 256 578 q 394 385 396 428 l 404 176 m 331 378 q 310 392 324 386 q 297 401 297 399 q 301 439 297 411 q 304 478 304 467 q 292 485 303 476 q 288 408 292 453 q 226 397 246 407 q 233 340 238 353 q 289 319 253 346 q 329 342 307 331 l 331 378 m 299 386 q 288 379 299 388 q 272 383 285 379 q 256 388 260 388 q 274 396 274 389 q 286 391 274 394 q 299 386 299 388 m 318 371 q 290 361 308 369 l 290 333 l 286 333 l 285 358 q 240 376 272 365 l 243 382 q 286 365 268 376 q 317 375 303 374 l 318 371 z "},"}":{"ha":1096,"x_min":21,"x_max":1075,"o":"m 1075 533 q 921 157 1075 313 q 549 1 767 1 q 176 157 331 1 q 21 533 21 313 q 176 910 21 754 q 549 1067 331 1067 q 921 910 767 1067 q 1075 533 1075 754 m 981 456 q 956 517 981 468 q 908 571 928 571 q 785 549 900 571 l 785 576 q 794 612 785 585 q 803 650 803 639 q 809 725 803 671 q 815 785 815 779 q 699 864 815 810 q 560 933 568 926 l 189 651 l 175 347 q 194 307 175 324 q 310 233 238 282 q 407 139 378 179 l 432 139 q 606 301 490 197 q 775 454 722 404 q 783 479 779 460 q 792 503 786 499 q 835 528 821 525 q 868 526 831 526 q 950 440 950 526 q 916 345 950 406 q 858 279 882 285 q 842 321 850 301 q 797 340 835 340 q 717 308 761 340 q 632 243 674 276 q 581 200 599 243 q 592 192 592 199 q 579 172 592 186 q 563 156 563 156 q 586 163 575 151 q 603 174 597 174 q 617 164 601 168 q 601 139 604 150 q 607 138 604 138 q 633 159 611 138 q 682 188 656 181 q 688 196 688 188 q 669 246 688 204 q 786 318 744 318 q 821 301 811 318 q 847 258 843 263 q 938 338 890 260 q 981 456 981 410 m 667 747 q 451 543 596 675 q 525 632 465 567 q 574 708 571 682 q 657 772 622 761 q 667 747 657 756 m 599 821 q 340 624 436 703 q 347 650 340 646 q 582 847 422 714 q 599 821 582 839 m 771 778 q 603 603 718 710 q 415 429 510 517 l 217 646 q 353 751 232 667 q 472 833 468 833 q 479 829 479 833 q 478 825 479 828 q 476 821 476 822 q 483 818 476 818 q 521 849 492 818 q 576 901 561 890 l 607 881 q 271 635 418 756 q 326 594 294 594 q 335 589 336 594 q 333 579 331 582 q 669 840 499 746 q 689 821 678 838 q 711 790 708 793 q 694 797 708 790 q 669 803 679 803 q 551 708 658 803 q 375 551 382 558 q 407 516 386 532 q 444 504 428 500 q 585 650 514 576 q 751 788 685 754 q 771 778 764 778 m 711 586 q 696 525 711 578 q 675 447 679 465 q 629 385 671 424 q 571 326 576 336 q 535 261 561 301 q 422 161 508 232 q 417 260 422 192 q 413 332 413 328 q 414 410 413 386 q 694 615 614 607 q 703 605 694 613 q 711 586 711 597 m 674 203 l 654 183 q 636 188 649 189 q 617 175 622 186 q 622 188 617 178 q 626 204 626 197 q 625 213 626 208 q 599 217 614 203 q 674 203 621 231 m 404 176 q 204 338 203 319 l 204 631 q 308 525 256 578 q 394 385 396 428 l 404 176 m 331 378 q 310 392 324 386 q 297 401 297 399 q 301 439 297 411 q 304 478 304 467 q 292 485 303 476 q 288 408 292 453 q 226 397 246 407 q 233 340 238 353 q 289 319 253 346 q 329 342 307 331 l 331 378 m 299 386 q 288 379 299 388 q 272 383 285 379 q 256 388 260 388 q 274 396 274 389 q 286 391 274 394 q 299 386 299 388 m 318 371 q 290 361 308 369 l 290 333 l 286 333 l 285 358 q 240 376 272 365 l 243 382 q 286 365 268 376 q 317 375 303 374 l 318 371 z "},"~":{"ha":1096,"x_min":21,"x_max":1075,"o":"m 1075 533 q 921 157 1075 313 q 549 1 767 1 q 176 157 331 1 q 21 533 21 313 q 176 910 21 754 q 549 1067 331 1067 q 921 910 767 1067 q 1075 533 1075 754 m 981 456 q 956 517 981 468 q 908 571 928 571 q 785 549 900 571 l 785 576 q 794 612 785 585 q 803 650 803 639 q 809 725 803 671 q 815 785 815 779 q 699 864 815 810 q 560 933 568 926 l 189 651 l 175 347 q 194 307 175 324 q 310 233 238 282 q 407 139 378 179 l 432 139 q 606 301 490 197 q 775 454 722 404 q 783 479 779 460 q 792 503 786 499 q 835 528 821 525 q 868 526 831 526 q 950 440 950 526 q 916 345 950 406 q 858 279 882 285 q 842 321 850 301 q 797 340 835 340 q 717 308 761 340 q 632 243 674 276 q 581 200 599 243 q 592 192 592 199 q 579 172 592 186 q 563 156 563 156 q 586 163 575 151 q 603 174 597 174 q 617 164 601 168 q 601 139 604 150 q 607 138 604 138 q 633 159 611 138 q 682 188 656 181 q 688 196 688 188 q 669 246 688 204 q 786 318 744 318 q 821 301 811 318 q 847 258 843 263 q 938 338 890 260 q 981 456 981 410 m 667 747 q 451 543 596 675 q 525 632 465 567 q 574 708 571 682 q 657 772 622 761 q 667 747 657 756 m 599 821 q 340 624 436 703 q 347 650 340 646 q 582 847 422 714 q 599 821 582 839 m 771 778 q 603 603 718 710 q 415 429 510 517 l 217 646 q 353 751 232 667 q 472 833 468 833 q 479 829 479 833 q 478 825 479 828 q 476 821 476 822 q 483 818 476 818 q 521 849 492 818 q 576 901 561 890 l 607 881 q 271 635 418 756 q 326 594 294 594 q 335 589 336 594 q 333 579 331 582 q 669 840 499 746 q 689 821 678 838 q 711 790 708 793 q 694 797 708 790 q 669 803 679 803 q 551 708 658 803 q 375 551 382 558 q 407 516 386 532 q 444 504 428 500 q 585 650 514 576 q 751 788 685 754 q 771 778 764 778 m 711 586 q 696 525 711 578 q 675 447 679 465 q 629 385 671 424 q 571 326 576 336 q 535 261 561 301 q 422 161 508 232 q 417 260 422 192 q 413 332 413 328 q 414 410 413 386 q 694 615 614 607 q 703 605 694 613 q 711 586 711 597 m 674 203 l 654 183 q 636 188 649 189 q 617 175 622 186 q 622 188 617 178 q 626 204 626 197 q 625 213 626 208 q 599 217 614 203 q 674 203 621 231 m 404 176 q 204 338 203 319 l 204 631 q 308 525 256 578 q 394 385 396 428 l 404 176 m 331 378 q 310 392 324 386 q 297 401 297 399 q 301 439 297 411 q 304 478 304 467 q 292 485 303 476 q 288 408 292 453 q 226 397 246 407 q 233 340 238 353 q 289 319 253 346 q 329 342 307 331 l 331 378 m 299 386 q 288 379 299 388 q 272 383 285 379 q 256 388 260 388 q 274 396 274 389 q 286 391 274 394 q 299 386 299 388 m 318 371 q 290 361 308 369 l 290 333 l 286 333 l 285 358 q 240 376 272 365 l 243 382 q 286 365 268 376 q 317 375 303 374 l 318 371 z "}," ":{"ha":1389,"x_min":0,"x_max":0,"o":""}}}
